M48
INCH,TZ
T1C0.024
T2C0.032
T3C0.035
T4C0.040
T5C0.059
T6C0.118
%
G90
G05
T1
X47679Y-26701
X48346Y-28268
X48346Y-30669
X48898Y-28287
X48917Y-30630
X49451Y-28276
X49451Y-30638
X49943Y-26701
X51026Y-21878
X53191Y-24437
X54667Y-25028
X54963Y-25815
X55061Y-30441
X55750Y-25815
X55750Y-28571
X56537Y-25815
X56734Y-24437
X56833Y-25028
X56931Y-28768
X57915Y-26602
X59293Y-27882
X59293Y-29850
X60081Y-29555
X60671Y-28374
X60671Y-29949
T2
X44000Y-21500
X45000Y-21500
T3
X54884Y-22272
X56616Y-22272
T4
X47270Y-21181
X47270Y-22181
X48270Y-21181
X48270Y-22181
X49270Y-21181
X49270Y-22181
T5
X43000Y-24500
X43000Y-27500
X43000Y-32000
X43000Y-35000
X43000Y-39500
X43000Y-42500
X43000Y-47000
X43000Y-50000
X45500Y-23500
X45500Y-31000
X45500Y-38500
X45500Y-46000
X46000Y-27500
X46000Y-35000
X46000Y-42500
X46000Y-50000
X47000Y-54500
X47000Y-57500
X49500Y-53500
X50000Y-57500
X50500Y-24500
X50500Y-27500
X50500Y-32000
X50500Y-35000
X50500Y-39500
X50500Y-42500
X50500Y-47000
X50500Y-50000
X53000Y-23500
X53000Y-31000
X53000Y-38500
X53000Y-46000
X53500Y-27500
X53500Y-35000
X53500Y-42500
X53500Y-50000
X58000Y-24500
X58000Y-27500
X58000Y-32000
X58000Y-35000
X58000Y-39500
X58000Y-42500
X58000Y-47000
X58000Y-50000
X58000Y-54500
X58000Y-57500
X60500Y-23500
X60500Y-31000
X60500Y-38500
X60500Y-46000
X60500Y-53500
X61000Y-27500
X61000Y-35000
X61000Y-42500
X61000Y-50000
X61000Y-57500
X65000Y-35250
X65000Y-38250
X65000Y-50250
X65000Y-53250
X65500Y-24500
X65500Y-27500
X68000Y-23500
X68000Y-35250
X68000Y-50250
X68500Y-27500
X69000Y-37750
X69000Y-52750
T6
X41577Y-21681
X41577Y-58689
X48270Y-44122
X62837Y-44122
X69923Y-21681
X69923Y-58689
T0
M30
