M48
INCH,TZ
T1C0.067
T2C0.120
T3C0.157
%
G90
G05
T1
X42500Y-25500
X42500Y-33000
X42500Y-40500
X42500Y-48000
X46500Y-25500
X46500Y-33000
X46500Y-40500
X46500Y-48000
X46500Y-55500
X50000Y-25500
X50000Y-33000
X50000Y-40500
X50000Y-48000
X50500Y-55500
X54000Y-25500
X54000Y-33000
X54000Y-40500
X54000Y-48000
X57500Y-25500
X57500Y-33000
X57500Y-40500
X57500Y-48000
X57500Y-55500
X61500Y-25500
X61500Y-33000
X61500Y-40500
X61500Y-48000
X61500Y-55500
X65000Y-25500
X67000Y-34750
X67000Y-38750
X67000Y-49750
X67000Y-53750
X69000Y-25500
T2
X43815Y-52745
X53185Y-52745
X69755Y-32065
X69755Y-41435
X69755Y-47065
X69755Y-56435
T3
X43815Y-58744
X44500Y-25500
X44500Y-33000
X44500Y-40500
X44500Y-48000
X52000Y-25500
X52000Y-33000
X52000Y-40500
X52000Y-48000
X53185Y-58744
X53185Y-58744
X59500Y-25500
X59500Y-33000
X59500Y-40500
X59500Y-48000
X59500Y-55500
X63756Y-32065
X63756Y-41435
X63756Y-41435
X63756Y-47065
X63756Y-56435
X63756Y-56435
X67000Y-25500
T0
M30
