G04 (created by PCBNEW-RS274X (2012-jan-04)-stable) date Wed 12 Sep 2012 01:10:29 PM EEST*
G01*
G70*
G90*
%MOIN*%
G04 Gerber Fmt 3.4, Leading zero omitted, Abs format*
%FSLAX34Y34*%
G04 APERTURE LIST*
%ADD10C,0.006000*%
%ADD11C,0.086500*%
%ADD12R,0.060000X0.060000*%
%ADD13C,0.060000*%
%ADD14C,0.035400*%
%ADD15C,0.066000*%
%ADD16C,0.196900*%
%ADD17C,0.039300*%
%ADD18C,0.013700*%
%ADD19C,0.010000*%
G04 APERTURE END LIST*
G54D10*
G54D11*
X43000Y-47000D03*
X45500Y-46000D03*
X43000Y-50000D03*
X46000Y-50000D03*
X43000Y-39500D03*
X45500Y-38500D03*
X43000Y-42500D03*
X46000Y-42500D03*
X50500Y-39500D03*
X53000Y-38500D03*
X50500Y-42500D03*
X53500Y-42500D03*
X50500Y-47000D03*
X53000Y-46000D03*
X50500Y-50000D03*
X53500Y-50000D03*
X50500Y-32000D03*
X53000Y-31000D03*
X50500Y-35000D03*
X53500Y-35000D03*
X58000Y-39500D03*
X60500Y-38500D03*
X58000Y-42500D03*
X61000Y-42500D03*
X58000Y-47000D03*
X60500Y-46000D03*
X58000Y-50000D03*
X61000Y-50000D03*
X58000Y-32000D03*
X60500Y-31000D03*
X58000Y-35000D03*
X61000Y-35000D03*
X58000Y-54500D03*
X60500Y-53500D03*
X58000Y-57500D03*
X61000Y-57500D03*
X65500Y-24500D03*
X68000Y-23500D03*
X65500Y-27500D03*
X68500Y-27500D03*
X58000Y-24500D03*
X60500Y-23500D03*
X58000Y-27500D03*
X61000Y-27500D03*
X50500Y-24500D03*
X53000Y-23500D03*
X50500Y-27500D03*
X53500Y-27500D03*
X43000Y-32000D03*
X45500Y-31000D03*
X43000Y-35000D03*
X46000Y-35000D03*
X43000Y-24500D03*
X45500Y-23500D03*
X43000Y-27500D03*
X46000Y-27500D03*
X68000Y-50250D03*
X69000Y-52750D03*
X65000Y-50250D03*
X65000Y-53250D03*
X68000Y-35250D03*
X69000Y-37750D03*
X65000Y-35250D03*
X65000Y-38250D03*
X47000Y-54500D03*
X49500Y-53500D03*
X47000Y-57500D03*
X50000Y-57500D03*
G54D12*
X47270Y-21181D03*
G54D13*
X47270Y-22181D03*
X48270Y-21181D03*
X48270Y-22181D03*
X49270Y-21181D03*
X49270Y-22181D03*
G54D14*
X54884Y-22272D03*
X56616Y-22272D03*
G54D15*
X45000Y-21500D03*
X44000Y-21500D03*
G54D16*
X69923Y-58689D03*
X41577Y-58689D03*
X41577Y-21681D03*
X69923Y-21681D03*
X48270Y-44122D03*
X62837Y-44122D03*
G54D17*
X54667Y-25028D03*
X56833Y-25028D03*
X51026Y-21878D03*
X49451Y-30638D03*
X49451Y-28276D03*
X48917Y-30630D03*
X48898Y-28287D03*
X48346Y-28268D03*
X48346Y-30669D03*
X47679Y-26701D03*
X49943Y-26701D03*
X59293Y-27882D03*
X59293Y-29850D03*
X60671Y-28374D03*
X55061Y-30441D03*
X60081Y-29555D03*
X56931Y-28768D03*
X57915Y-26602D03*
X54963Y-25815D03*
X56734Y-24437D03*
X55750Y-28571D03*
X53191Y-24437D03*
X60671Y-29949D03*
X56537Y-25815D03*
X55750Y-25815D03*
G54D18*
X54667Y-25028D02*
X56833Y-25028D01*
X47270Y-22181D02*
X47270Y-22453D01*
X50042Y-22862D02*
X51026Y-21878D01*
X47679Y-22862D02*
X50042Y-22862D01*
X47270Y-22453D02*
X47679Y-22862D01*
X49451Y-30638D02*
X49451Y-28276D01*
X48898Y-28287D02*
X48917Y-28306D01*
X48917Y-28306D02*
X48917Y-30630D01*
X48346Y-30669D02*
X48346Y-28268D01*
X47679Y-26701D02*
X49943Y-26701D01*
X59293Y-27882D02*
X59293Y-29850D01*
X55750Y-25815D02*
X56537Y-25815D01*
G54D10*
G36*
X70842Y-59608D02*
X70677Y-59608D01*
X70715Y-59552D01*
X69923Y-58760D01*
X69852Y-58831D01*
X69852Y-58689D01*
X69060Y-57897D01*
X68897Y-58005D01*
X68714Y-58450D01*
X68714Y-58931D01*
X68897Y-59373D01*
X69060Y-59481D01*
X69852Y-58689D01*
X69852Y-58831D01*
X69131Y-59552D01*
X69168Y-59608D01*
X67521Y-59608D01*
X67521Y-53854D01*
X67521Y-53647D01*
X67442Y-53455D01*
X67296Y-53309D01*
X67104Y-53229D01*
X66897Y-53229D01*
X66705Y-53308D01*
X66559Y-53454D01*
X66479Y-53646D01*
X66479Y-53853D01*
X66558Y-54045D01*
X66704Y-54191D01*
X66896Y-54271D01*
X67103Y-54271D01*
X67295Y-54192D01*
X67441Y-54046D01*
X67521Y-53854D01*
X67521Y-59608D01*
X66119Y-59608D01*
X66119Y-27623D01*
X66119Y-27377D01*
X66025Y-27149D01*
X65851Y-26975D01*
X65623Y-26881D01*
X65377Y-26881D01*
X65149Y-26975D01*
X64975Y-27149D01*
X64881Y-27377D01*
X64881Y-27623D01*
X64975Y-27851D01*
X65149Y-28025D01*
X65377Y-28119D01*
X65623Y-28119D01*
X65851Y-28025D01*
X66025Y-27851D01*
X66119Y-27623D01*
X66119Y-59608D01*
X65619Y-59608D01*
X65619Y-53373D01*
X65619Y-53127D01*
X65619Y-50373D01*
X65619Y-50127D01*
X65619Y-38373D01*
X65619Y-38127D01*
X65619Y-35373D01*
X65619Y-35127D01*
X65525Y-34899D01*
X65351Y-34725D01*
X65123Y-34631D01*
X64877Y-34631D01*
X64730Y-34691D01*
X64730Y-32259D01*
X64730Y-31872D01*
X64582Y-31514D01*
X64308Y-31240D01*
X63950Y-31091D01*
X63563Y-31091D01*
X63205Y-31239D01*
X62931Y-31513D01*
X62782Y-31871D01*
X62782Y-32258D01*
X62930Y-32616D01*
X63204Y-32890D01*
X63562Y-33039D01*
X63949Y-33039D01*
X64307Y-32891D01*
X64581Y-32617D01*
X64730Y-32259D01*
X64730Y-34691D01*
X64649Y-34725D01*
X64475Y-34899D01*
X64381Y-35127D01*
X64381Y-35373D01*
X64475Y-35601D01*
X64649Y-35775D01*
X64877Y-35869D01*
X65123Y-35869D01*
X65351Y-35775D01*
X65525Y-35601D01*
X65619Y-35373D01*
X65619Y-38127D01*
X65525Y-37899D01*
X65351Y-37725D01*
X65123Y-37631D01*
X64877Y-37631D01*
X64649Y-37725D01*
X64475Y-37899D01*
X64381Y-38127D01*
X64381Y-38373D01*
X64475Y-38601D01*
X64649Y-38775D01*
X64877Y-38869D01*
X65123Y-38869D01*
X65351Y-38775D01*
X65525Y-38601D01*
X65619Y-38373D01*
X65619Y-50127D01*
X65525Y-49899D01*
X65351Y-49725D01*
X65123Y-49631D01*
X64877Y-49631D01*
X64730Y-49691D01*
X64730Y-47259D01*
X64730Y-46872D01*
X64730Y-41629D01*
X64730Y-41242D01*
X64582Y-40884D01*
X64308Y-40610D01*
X63950Y-40461D01*
X63563Y-40461D01*
X63205Y-40609D01*
X62931Y-40883D01*
X62782Y-41241D01*
X62782Y-41628D01*
X62930Y-41986D01*
X63204Y-42260D01*
X63562Y-42409D01*
X63949Y-42409D01*
X64307Y-42261D01*
X64581Y-41987D01*
X64730Y-41629D01*
X64730Y-46872D01*
X64582Y-46514D01*
X64308Y-46240D01*
X64046Y-46130D01*
X64046Y-44361D01*
X64046Y-43880D01*
X63863Y-43438D01*
X63700Y-43330D01*
X63629Y-43401D01*
X63629Y-43259D01*
X63521Y-43096D01*
X63076Y-42913D01*
X62595Y-42913D01*
X62153Y-43096D01*
X62045Y-43259D01*
X62837Y-44051D01*
X63629Y-43259D01*
X63629Y-43401D01*
X62908Y-44122D01*
X63700Y-44914D01*
X63863Y-44806D01*
X64046Y-44361D01*
X64046Y-46130D01*
X63950Y-46091D01*
X63629Y-46091D01*
X63629Y-44985D01*
X62837Y-44193D01*
X62766Y-44264D01*
X62766Y-44122D01*
X62021Y-43377D01*
X62021Y-40604D01*
X62021Y-40397D01*
X62021Y-33104D01*
X62021Y-32897D01*
X62021Y-25604D01*
X62021Y-25397D01*
X61942Y-25205D01*
X61796Y-25059D01*
X61604Y-24979D01*
X61397Y-24979D01*
X61205Y-25058D01*
X61173Y-25090D01*
X61173Y-23610D01*
X61165Y-23344D01*
X61080Y-23141D01*
X60972Y-23099D01*
X60901Y-23170D01*
X60901Y-23028D01*
X60859Y-22920D01*
X60610Y-22827D01*
X60344Y-22835D01*
X60141Y-22920D01*
X60099Y-23028D01*
X60500Y-23429D01*
X60901Y-23028D01*
X60901Y-23170D01*
X60571Y-23500D01*
X60972Y-23901D01*
X61080Y-23859D01*
X61173Y-23610D01*
X61173Y-25090D01*
X61059Y-25204D01*
X60979Y-25396D01*
X60979Y-25603D01*
X61058Y-25795D01*
X61204Y-25941D01*
X61396Y-26021D01*
X61603Y-26021D01*
X61795Y-25942D01*
X61941Y-25796D01*
X62021Y-25604D01*
X62021Y-32897D01*
X61942Y-32705D01*
X61796Y-32559D01*
X61619Y-32485D01*
X61619Y-27623D01*
X61619Y-27377D01*
X61525Y-27149D01*
X61351Y-26975D01*
X61123Y-26881D01*
X60901Y-26881D01*
X60901Y-23972D01*
X60500Y-23571D01*
X60429Y-23642D01*
X60429Y-23500D01*
X60028Y-23099D01*
X59920Y-23141D01*
X59827Y-23390D01*
X59835Y-23656D01*
X59920Y-23859D01*
X60028Y-23901D01*
X60429Y-23500D01*
X60429Y-23642D01*
X60099Y-23972D01*
X60141Y-24080D01*
X60390Y-24173D01*
X60656Y-24165D01*
X60859Y-24080D01*
X60901Y-23972D01*
X60901Y-26881D01*
X60877Y-26881D01*
X60649Y-26975D01*
X60475Y-27149D01*
X60474Y-27151D01*
X60474Y-25694D01*
X60474Y-25307D01*
X60326Y-24949D01*
X60052Y-24675D01*
X59694Y-24526D01*
X59307Y-24526D01*
X58949Y-24674D01*
X58675Y-24948D01*
X58619Y-25082D01*
X58619Y-24623D01*
X58619Y-24377D01*
X58525Y-24149D01*
X58351Y-23975D01*
X58123Y-23881D01*
X57877Y-23881D01*
X57649Y-23975D01*
X57475Y-24149D01*
X57381Y-24377D01*
X57381Y-24623D01*
X57475Y-24851D01*
X57603Y-24979D01*
X57397Y-24979D01*
X57216Y-25053D01*
X57216Y-24952D01*
X57158Y-24811D01*
X57050Y-24703D01*
X56980Y-24674D01*
X56980Y-22345D01*
X56980Y-22200D01*
X56925Y-22066D01*
X56822Y-21964D01*
X56689Y-21908D01*
X56544Y-21908D01*
X56410Y-21963D01*
X56308Y-22066D01*
X56252Y-22199D01*
X56252Y-22344D01*
X56307Y-22478D01*
X56410Y-22580D01*
X56543Y-22636D01*
X56688Y-22636D01*
X56822Y-22581D01*
X56924Y-22478D01*
X56980Y-22345D01*
X56980Y-24674D01*
X56909Y-24645D01*
X56757Y-24645D01*
X56616Y-24703D01*
X56546Y-24773D01*
X55248Y-24773D01*
X55248Y-22345D01*
X55248Y-22200D01*
X55193Y-22066D01*
X55090Y-21964D01*
X54957Y-21908D01*
X54812Y-21908D01*
X54678Y-21963D01*
X54576Y-22066D01*
X54520Y-22199D01*
X54520Y-22344D01*
X54575Y-22478D01*
X54678Y-22580D01*
X54811Y-22636D01*
X54956Y-22636D01*
X55090Y-22581D01*
X55192Y-22478D01*
X55248Y-22345D01*
X55248Y-24773D01*
X54954Y-24773D01*
X54884Y-24703D01*
X54743Y-24645D01*
X54591Y-24645D01*
X54450Y-24703D01*
X54342Y-24811D01*
X54284Y-24952D01*
X54284Y-25054D01*
X54104Y-24979D01*
X53897Y-24979D01*
X53705Y-25058D01*
X53673Y-25090D01*
X53673Y-23610D01*
X53665Y-23344D01*
X53580Y-23141D01*
X53472Y-23099D01*
X53401Y-23170D01*
X53401Y-23028D01*
X53359Y-22920D01*
X53110Y-22827D01*
X52844Y-22835D01*
X52641Y-22920D01*
X52599Y-23028D01*
X53000Y-23429D01*
X53401Y-23028D01*
X53401Y-23170D01*
X53071Y-23500D01*
X53472Y-23901D01*
X53580Y-23859D01*
X53673Y-23610D01*
X53673Y-25090D01*
X53559Y-25204D01*
X53479Y-25396D01*
X53479Y-25603D01*
X53558Y-25795D01*
X53704Y-25941D01*
X53896Y-26021D01*
X54103Y-26021D01*
X54295Y-25942D01*
X54441Y-25796D01*
X54521Y-25604D01*
X54521Y-25397D01*
X54513Y-25379D01*
X54591Y-25411D01*
X54743Y-25411D01*
X54884Y-25353D01*
X54954Y-25283D01*
X56546Y-25283D01*
X56616Y-25353D01*
X56757Y-25411D01*
X56909Y-25411D01*
X56985Y-25379D01*
X56979Y-25396D01*
X56979Y-25603D01*
X57058Y-25795D01*
X57204Y-25941D01*
X57396Y-26021D01*
X57603Y-26021D01*
X57795Y-25942D01*
X57941Y-25796D01*
X58021Y-25604D01*
X58021Y-25397D01*
X57942Y-25205D01*
X57841Y-25104D01*
X57877Y-25119D01*
X58123Y-25119D01*
X58351Y-25025D01*
X58525Y-24851D01*
X58619Y-24623D01*
X58619Y-25082D01*
X58526Y-25306D01*
X58526Y-25693D01*
X58674Y-26051D01*
X58948Y-26325D01*
X59306Y-26474D01*
X59693Y-26474D01*
X60051Y-26326D01*
X60325Y-26052D01*
X60474Y-25694D01*
X60474Y-27151D01*
X60381Y-27377D01*
X60381Y-27623D01*
X60475Y-27851D01*
X60649Y-28025D01*
X60877Y-28119D01*
X61123Y-28119D01*
X61351Y-28025D01*
X61525Y-27851D01*
X61619Y-27623D01*
X61619Y-32485D01*
X61604Y-32479D01*
X61397Y-32479D01*
X61205Y-32558D01*
X61173Y-32590D01*
X61173Y-31110D01*
X61165Y-30844D01*
X61080Y-30641D01*
X60972Y-30599D01*
X60901Y-30670D01*
X60901Y-30528D01*
X60859Y-30420D01*
X60610Y-30327D01*
X60344Y-30335D01*
X60141Y-30420D01*
X60099Y-30528D01*
X60500Y-30929D01*
X60901Y-30528D01*
X60901Y-30670D01*
X60571Y-31000D01*
X60972Y-31401D01*
X61080Y-31359D01*
X61173Y-31110D01*
X61173Y-32590D01*
X61059Y-32704D01*
X60979Y-32896D01*
X60979Y-33103D01*
X61058Y-33295D01*
X61204Y-33441D01*
X61396Y-33521D01*
X61603Y-33521D01*
X61795Y-33442D01*
X61941Y-33296D01*
X62021Y-33104D01*
X62021Y-40397D01*
X61942Y-40205D01*
X61796Y-40059D01*
X61619Y-39985D01*
X61619Y-35123D01*
X61619Y-34877D01*
X61525Y-34649D01*
X61351Y-34475D01*
X61123Y-34381D01*
X60901Y-34381D01*
X60901Y-31472D01*
X60500Y-31071D01*
X60429Y-31142D01*
X60429Y-31000D01*
X60028Y-30599D01*
X59920Y-30641D01*
X59827Y-30890D01*
X59835Y-31156D01*
X59920Y-31359D01*
X60028Y-31401D01*
X60429Y-31000D01*
X60429Y-31142D01*
X60099Y-31472D01*
X60141Y-31580D01*
X60390Y-31673D01*
X60656Y-31665D01*
X60859Y-31580D01*
X60901Y-31472D01*
X60901Y-34381D01*
X60877Y-34381D01*
X60649Y-34475D01*
X60475Y-34649D01*
X60474Y-34651D01*
X60474Y-33194D01*
X60474Y-32807D01*
X60326Y-32449D01*
X60052Y-32175D01*
X59694Y-32026D01*
X59676Y-32026D01*
X59676Y-29926D01*
X59676Y-29774D01*
X59618Y-29633D01*
X59548Y-29563D01*
X59548Y-28169D01*
X59618Y-28099D01*
X59676Y-27958D01*
X59676Y-27806D01*
X59618Y-27665D01*
X59510Y-27557D01*
X59369Y-27499D01*
X59217Y-27499D01*
X59076Y-27557D01*
X58968Y-27665D01*
X58910Y-27806D01*
X58910Y-27958D01*
X58968Y-28099D01*
X59038Y-28169D01*
X59038Y-29563D01*
X58968Y-29633D01*
X58910Y-29774D01*
X58910Y-29926D01*
X58968Y-30067D01*
X59076Y-30175D01*
X59217Y-30233D01*
X59369Y-30233D01*
X59510Y-30175D01*
X59618Y-30067D01*
X59676Y-29926D01*
X59676Y-32026D01*
X59307Y-32026D01*
X58949Y-32174D01*
X58675Y-32448D01*
X58619Y-32582D01*
X58619Y-32123D01*
X58619Y-31877D01*
X58619Y-27623D01*
X58619Y-27377D01*
X58525Y-27149D01*
X58351Y-26975D01*
X58123Y-26881D01*
X57877Y-26881D01*
X57649Y-26975D01*
X57475Y-27149D01*
X57381Y-27377D01*
X57381Y-27623D01*
X57475Y-27851D01*
X57649Y-28025D01*
X57877Y-28119D01*
X58123Y-28119D01*
X58351Y-28025D01*
X58525Y-27851D01*
X58619Y-27623D01*
X58619Y-31877D01*
X58525Y-31649D01*
X58351Y-31475D01*
X58123Y-31381D01*
X57877Y-31381D01*
X57649Y-31475D01*
X57475Y-31649D01*
X57381Y-31877D01*
X57381Y-32123D01*
X57475Y-32351D01*
X57603Y-32479D01*
X57397Y-32479D01*
X57205Y-32558D01*
X57059Y-32704D01*
X56979Y-32896D01*
X56979Y-33103D01*
X57058Y-33295D01*
X57204Y-33441D01*
X57396Y-33521D01*
X57603Y-33521D01*
X57795Y-33442D01*
X57941Y-33296D01*
X58021Y-33104D01*
X58021Y-32897D01*
X57942Y-32705D01*
X57841Y-32604D01*
X57877Y-32619D01*
X58123Y-32619D01*
X58351Y-32525D01*
X58525Y-32351D01*
X58619Y-32123D01*
X58619Y-32582D01*
X58526Y-32806D01*
X58526Y-33193D01*
X58674Y-33551D01*
X58948Y-33825D01*
X59306Y-33974D01*
X59693Y-33974D01*
X60051Y-33826D01*
X60325Y-33552D01*
X60474Y-33194D01*
X60474Y-34651D01*
X60381Y-34877D01*
X60381Y-35123D01*
X60475Y-35351D01*
X60649Y-35525D01*
X60877Y-35619D01*
X61123Y-35619D01*
X61351Y-35525D01*
X61525Y-35351D01*
X61619Y-35123D01*
X61619Y-39985D01*
X61604Y-39979D01*
X61397Y-39979D01*
X61205Y-40058D01*
X61173Y-40090D01*
X61173Y-38610D01*
X61165Y-38344D01*
X61080Y-38141D01*
X60972Y-38099D01*
X60901Y-38170D01*
X60901Y-38028D01*
X60859Y-37920D01*
X60610Y-37827D01*
X60344Y-37835D01*
X60141Y-37920D01*
X60099Y-38028D01*
X60500Y-38429D01*
X60901Y-38028D01*
X60901Y-38170D01*
X60571Y-38500D01*
X60972Y-38901D01*
X61080Y-38859D01*
X61173Y-38610D01*
X61173Y-40090D01*
X61059Y-40204D01*
X60979Y-40396D01*
X60979Y-40603D01*
X61058Y-40795D01*
X61204Y-40941D01*
X61396Y-41021D01*
X61603Y-41021D01*
X61795Y-40942D01*
X61941Y-40796D01*
X62021Y-40604D01*
X62021Y-43377D01*
X61974Y-43330D01*
X61811Y-43438D01*
X61628Y-43883D01*
X61628Y-44364D01*
X61811Y-44806D01*
X61974Y-44914D01*
X62766Y-44122D01*
X62766Y-44264D01*
X62045Y-44985D01*
X62153Y-45148D01*
X62598Y-45331D01*
X63079Y-45331D01*
X63521Y-45148D01*
X63629Y-44985D01*
X63629Y-46091D01*
X63563Y-46091D01*
X63205Y-46239D01*
X62931Y-46513D01*
X62782Y-46871D01*
X62782Y-47258D01*
X62930Y-47616D01*
X63204Y-47890D01*
X63562Y-48039D01*
X63949Y-48039D01*
X64307Y-47891D01*
X64581Y-47617D01*
X64730Y-47259D01*
X64730Y-49691D01*
X64649Y-49725D01*
X64475Y-49899D01*
X64381Y-50127D01*
X64381Y-50373D01*
X64475Y-50601D01*
X64649Y-50775D01*
X64877Y-50869D01*
X65123Y-50869D01*
X65351Y-50775D01*
X65525Y-50601D01*
X65619Y-50373D01*
X65619Y-53127D01*
X65525Y-52899D01*
X65351Y-52725D01*
X65123Y-52631D01*
X64877Y-52631D01*
X64649Y-52725D01*
X64475Y-52899D01*
X64381Y-53127D01*
X64381Y-53373D01*
X64475Y-53601D01*
X64649Y-53775D01*
X64877Y-53869D01*
X65123Y-53869D01*
X65351Y-53775D01*
X65525Y-53601D01*
X65619Y-53373D01*
X65619Y-59608D01*
X64730Y-59608D01*
X64730Y-56629D01*
X64730Y-56242D01*
X64582Y-55884D01*
X64308Y-55610D01*
X63950Y-55461D01*
X63563Y-55461D01*
X63205Y-55609D01*
X62931Y-55883D01*
X62782Y-56241D01*
X62782Y-56628D01*
X62930Y-56986D01*
X63204Y-57260D01*
X63562Y-57409D01*
X63949Y-57409D01*
X64307Y-57261D01*
X64581Y-56987D01*
X64730Y-56629D01*
X64730Y-59608D01*
X62021Y-59608D01*
X62021Y-55604D01*
X62021Y-55397D01*
X62021Y-48104D01*
X62021Y-47897D01*
X61942Y-47705D01*
X61796Y-47559D01*
X61619Y-47485D01*
X61619Y-42623D01*
X61619Y-42377D01*
X61525Y-42149D01*
X61351Y-41975D01*
X61123Y-41881D01*
X60901Y-41881D01*
X60901Y-38972D01*
X60500Y-38571D01*
X60429Y-38642D01*
X60429Y-38500D01*
X60028Y-38099D01*
X59920Y-38141D01*
X59827Y-38390D01*
X59835Y-38656D01*
X59920Y-38859D01*
X60028Y-38901D01*
X60429Y-38500D01*
X60429Y-38642D01*
X60099Y-38972D01*
X60141Y-39080D01*
X60390Y-39173D01*
X60656Y-39165D01*
X60859Y-39080D01*
X60901Y-38972D01*
X60901Y-41881D01*
X60877Y-41881D01*
X60649Y-41975D01*
X60475Y-42149D01*
X60474Y-42151D01*
X60474Y-40694D01*
X60474Y-40307D01*
X60326Y-39949D01*
X60052Y-39675D01*
X59694Y-39526D01*
X59307Y-39526D01*
X58949Y-39674D01*
X58675Y-39948D01*
X58619Y-40082D01*
X58619Y-39623D01*
X58619Y-39377D01*
X58619Y-35123D01*
X58619Y-34877D01*
X58525Y-34649D01*
X58351Y-34475D01*
X58123Y-34381D01*
X57877Y-34381D01*
X57649Y-34475D01*
X57475Y-34649D01*
X57381Y-34877D01*
X57381Y-35123D01*
X57475Y-35351D01*
X57649Y-35525D01*
X57877Y-35619D01*
X58123Y-35619D01*
X58351Y-35525D01*
X58525Y-35351D01*
X58619Y-35123D01*
X58619Y-39377D01*
X58525Y-39149D01*
X58351Y-38975D01*
X58123Y-38881D01*
X57877Y-38881D01*
X57649Y-38975D01*
X57475Y-39149D01*
X57381Y-39377D01*
X57381Y-39623D01*
X57475Y-39851D01*
X57603Y-39979D01*
X57397Y-39979D01*
X57205Y-40058D01*
X57059Y-40204D01*
X56979Y-40396D01*
X56979Y-40603D01*
X57058Y-40795D01*
X57204Y-40941D01*
X57396Y-41021D01*
X57603Y-41021D01*
X57795Y-40942D01*
X57941Y-40796D01*
X58021Y-40604D01*
X58021Y-40397D01*
X57942Y-40205D01*
X57841Y-40104D01*
X57877Y-40119D01*
X58123Y-40119D01*
X58351Y-40025D01*
X58525Y-39851D01*
X58619Y-39623D01*
X58619Y-40082D01*
X58526Y-40306D01*
X58526Y-40693D01*
X58674Y-41051D01*
X58948Y-41325D01*
X59306Y-41474D01*
X59693Y-41474D01*
X60051Y-41326D01*
X60325Y-41052D01*
X60474Y-40694D01*
X60474Y-42151D01*
X60381Y-42377D01*
X60381Y-42623D01*
X60475Y-42851D01*
X60649Y-43025D01*
X60877Y-43119D01*
X61123Y-43119D01*
X61351Y-43025D01*
X61525Y-42851D01*
X61619Y-42623D01*
X61619Y-47485D01*
X61604Y-47479D01*
X61397Y-47479D01*
X61205Y-47558D01*
X61173Y-47590D01*
X61173Y-46110D01*
X61165Y-45844D01*
X61080Y-45641D01*
X60972Y-45599D01*
X60901Y-45670D01*
X60901Y-45528D01*
X60859Y-45420D01*
X60610Y-45327D01*
X60344Y-45335D01*
X60141Y-45420D01*
X60099Y-45528D01*
X60500Y-45929D01*
X60901Y-45528D01*
X60901Y-45670D01*
X60571Y-46000D01*
X60972Y-46401D01*
X61080Y-46359D01*
X61173Y-46110D01*
X61173Y-47590D01*
X61059Y-47704D01*
X60979Y-47896D01*
X60979Y-48103D01*
X61058Y-48295D01*
X61204Y-48441D01*
X61396Y-48521D01*
X61603Y-48521D01*
X61795Y-48442D01*
X61941Y-48296D01*
X62021Y-48104D01*
X62021Y-55397D01*
X61942Y-55205D01*
X61796Y-55059D01*
X61619Y-54985D01*
X61619Y-50123D01*
X61619Y-49877D01*
X61525Y-49649D01*
X61351Y-49475D01*
X61123Y-49381D01*
X60901Y-49381D01*
X60901Y-46472D01*
X60500Y-46071D01*
X60429Y-46142D01*
X60429Y-46000D01*
X60028Y-45599D01*
X59920Y-45641D01*
X59827Y-45890D01*
X59835Y-46156D01*
X59920Y-46359D01*
X60028Y-46401D01*
X60429Y-46000D01*
X60429Y-46142D01*
X60099Y-46472D01*
X60141Y-46580D01*
X60390Y-46673D01*
X60656Y-46665D01*
X60859Y-46580D01*
X60901Y-46472D01*
X60901Y-49381D01*
X60877Y-49381D01*
X60649Y-49475D01*
X60475Y-49649D01*
X60474Y-49651D01*
X60474Y-48194D01*
X60474Y-47807D01*
X60326Y-47449D01*
X60052Y-47175D01*
X59694Y-47026D01*
X59307Y-47026D01*
X58949Y-47174D01*
X58675Y-47448D01*
X58619Y-47582D01*
X58619Y-47123D01*
X58619Y-46877D01*
X58619Y-42623D01*
X58619Y-42377D01*
X58525Y-42149D01*
X58351Y-41975D01*
X58123Y-41881D01*
X57877Y-41881D01*
X57649Y-41975D01*
X57475Y-42149D01*
X57381Y-42377D01*
X57381Y-42623D01*
X57475Y-42851D01*
X57649Y-43025D01*
X57877Y-43119D01*
X58123Y-43119D01*
X58351Y-43025D01*
X58525Y-42851D01*
X58619Y-42623D01*
X58619Y-46877D01*
X58525Y-46649D01*
X58351Y-46475D01*
X58123Y-46381D01*
X57877Y-46381D01*
X57649Y-46475D01*
X57475Y-46649D01*
X57381Y-46877D01*
X57381Y-47123D01*
X57475Y-47351D01*
X57603Y-47479D01*
X57397Y-47479D01*
X57205Y-47558D01*
X57059Y-47704D01*
X56979Y-47896D01*
X56979Y-48103D01*
X57058Y-48295D01*
X57204Y-48441D01*
X57396Y-48521D01*
X57603Y-48521D01*
X57795Y-48442D01*
X57941Y-48296D01*
X58021Y-48104D01*
X58021Y-47897D01*
X57942Y-47705D01*
X57841Y-47604D01*
X57877Y-47619D01*
X58123Y-47619D01*
X58351Y-47525D01*
X58525Y-47351D01*
X58619Y-47123D01*
X58619Y-47582D01*
X58526Y-47806D01*
X58526Y-48193D01*
X58674Y-48551D01*
X58948Y-48825D01*
X59306Y-48974D01*
X59693Y-48974D01*
X60051Y-48826D01*
X60325Y-48552D01*
X60474Y-48194D01*
X60474Y-49651D01*
X60381Y-49877D01*
X60381Y-50123D01*
X60475Y-50351D01*
X60649Y-50525D01*
X60877Y-50619D01*
X61123Y-50619D01*
X61351Y-50525D01*
X61525Y-50351D01*
X61619Y-50123D01*
X61619Y-54985D01*
X61604Y-54979D01*
X61397Y-54979D01*
X61205Y-55058D01*
X61173Y-55090D01*
X61173Y-53610D01*
X61165Y-53344D01*
X61080Y-53141D01*
X60972Y-53099D01*
X60901Y-53170D01*
X60901Y-53028D01*
X60859Y-52920D01*
X60610Y-52827D01*
X60344Y-52835D01*
X60141Y-52920D01*
X60099Y-53028D01*
X60500Y-53429D01*
X60901Y-53028D01*
X60901Y-53170D01*
X60571Y-53500D01*
X60972Y-53901D01*
X61080Y-53859D01*
X61173Y-53610D01*
X61173Y-55090D01*
X61059Y-55204D01*
X60979Y-55396D01*
X60979Y-55603D01*
X61058Y-55795D01*
X61204Y-55941D01*
X61396Y-56021D01*
X61603Y-56021D01*
X61795Y-55942D01*
X61941Y-55796D01*
X62021Y-55604D01*
X62021Y-59608D01*
X61619Y-59608D01*
X61619Y-57623D01*
X61619Y-57377D01*
X61525Y-57149D01*
X61351Y-56975D01*
X61123Y-56881D01*
X60901Y-56881D01*
X60901Y-53972D01*
X60500Y-53571D01*
X60429Y-53642D01*
X60429Y-53500D01*
X60028Y-53099D01*
X59920Y-53141D01*
X59827Y-53390D01*
X59835Y-53656D01*
X59920Y-53859D01*
X60028Y-53901D01*
X60429Y-53500D01*
X60429Y-53642D01*
X60099Y-53972D01*
X60141Y-54080D01*
X60390Y-54173D01*
X60656Y-54165D01*
X60859Y-54080D01*
X60901Y-53972D01*
X60901Y-56881D01*
X60877Y-56881D01*
X60649Y-56975D01*
X60475Y-57149D01*
X60474Y-57151D01*
X60474Y-55694D01*
X60474Y-55307D01*
X60326Y-54949D01*
X60052Y-54675D01*
X59694Y-54526D01*
X59307Y-54526D01*
X58949Y-54674D01*
X58675Y-54948D01*
X58619Y-55082D01*
X58619Y-54623D01*
X58619Y-54377D01*
X58619Y-50123D01*
X58619Y-49877D01*
X58525Y-49649D01*
X58351Y-49475D01*
X58123Y-49381D01*
X57877Y-49381D01*
X57649Y-49475D01*
X57475Y-49649D01*
X57381Y-49877D01*
X57381Y-50123D01*
X57475Y-50351D01*
X57649Y-50525D01*
X57877Y-50619D01*
X58123Y-50619D01*
X58351Y-50525D01*
X58525Y-50351D01*
X58619Y-50123D01*
X58619Y-54377D01*
X58525Y-54149D01*
X58351Y-53975D01*
X58123Y-53881D01*
X57877Y-53881D01*
X57649Y-53975D01*
X57475Y-54149D01*
X57381Y-54377D01*
X57381Y-54623D01*
X57475Y-54851D01*
X57603Y-54979D01*
X57397Y-54979D01*
X57205Y-55058D01*
X57059Y-55204D01*
X56979Y-55396D01*
X56979Y-55603D01*
X57058Y-55795D01*
X57204Y-55941D01*
X57396Y-56021D01*
X57603Y-56021D01*
X57795Y-55942D01*
X57941Y-55796D01*
X58021Y-55604D01*
X58021Y-55397D01*
X57942Y-55205D01*
X57841Y-55104D01*
X57877Y-55119D01*
X58123Y-55119D01*
X58351Y-55025D01*
X58525Y-54851D01*
X58619Y-54623D01*
X58619Y-55082D01*
X58526Y-55306D01*
X58526Y-55693D01*
X58674Y-56051D01*
X58948Y-56325D01*
X59306Y-56474D01*
X59693Y-56474D01*
X60051Y-56326D01*
X60325Y-56052D01*
X60474Y-55694D01*
X60474Y-57151D01*
X60381Y-57377D01*
X60381Y-57623D01*
X60475Y-57851D01*
X60649Y-58025D01*
X60877Y-58119D01*
X61123Y-58119D01*
X61351Y-58025D01*
X61525Y-57851D01*
X61619Y-57623D01*
X61619Y-59608D01*
X58619Y-59608D01*
X58619Y-57623D01*
X58619Y-57377D01*
X58525Y-57149D01*
X58351Y-56975D01*
X58123Y-56881D01*
X57877Y-56881D01*
X57649Y-56975D01*
X57475Y-57149D01*
X57381Y-57377D01*
X57381Y-57623D01*
X57475Y-57851D01*
X57649Y-58025D01*
X57877Y-58119D01*
X58123Y-58119D01*
X58351Y-58025D01*
X58525Y-57851D01*
X58619Y-57623D01*
X58619Y-59608D01*
X56920Y-59608D01*
X56920Y-25891D01*
X56920Y-25739D01*
X56862Y-25598D01*
X56754Y-25490D01*
X56613Y-25432D01*
X56461Y-25432D01*
X56320Y-25490D01*
X56250Y-25560D01*
X56037Y-25560D01*
X55967Y-25490D01*
X55826Y-25432D01*
X55674Y-25432D01*
X55533Y-25490D01*
X55425Y-25598D01*
X55367Y-25739D01*
X55367Y-25891D01*
X55425Y-26032D01*
X55533Y-26140D01*
X55674Y-26198D01*
X55826Y-26198D01*
X55967Y-26140D01*
X56037Y-26070D01*
X56250Y-26070D01*
X56320Y-26140D01*
X56461Y-26198D01*
X56613Y-26198D01*
X56754Y-26140D01*
X56862Y-26032D01*
X56920Y-25891D01*
X56920Y-59608D01*
X54521Y-59608D01*
X54521Y-48104D01*
X54521Y-47897D01*
X54521Y-40604D01*
X54521Y-40397D01*
X54521Y-33104D01*
X54521Y-32897D01*
X54442Y-32705D01*
X54296Y-32559D01*
X54119Y-32485D01*
X54119Y-27623D01*
X54119Y-27377D01*
X54025Y-27149D01*
X53851Y-26975D01*
X53623Y-26881D01*
X53401Y-26881D01*
X53401Y-23972D01*
X53000Y-23571D01*
X52929Y-23642D01*
X52929Y-23500D01*
X52528Y-23099D01*
X52420Y-23141D01*
X52327Y-23390D01*
X52335Y-23656D01*
X52420Y-23859D01*
X52528Y-23901D01*
X52929Y-23500D01*
X52929Y-23642D01*
X52599Y-23972D01*
X52641Y-24080D01*
X52890Y-24173D01*
X53156Y-24165D01*
X53359Y-24080D01*
X53401Y-23972D01*
X53401Y-26881D01*
X53377Y-26881D01*
X53149Y-26975D01*
X52975Y-27149D01*
X52974Y-27151D01*
X52974Y-25694D01*
X52974Y-25307D01*
X52826Y-24949D01*
X52552Y-24675D01*
X52194Y-24526D01*
X51807Y-24526D01*
X51449Y-24674D01*
X51409Y-24714D01*
X51409Y-21954D01*
X51409Y-21802D01*
X51351Y-21661D01*
X51243Y-21553D01*
X51102Y-21495D01*
X50950Y-21495D01*
X50809Y-21553D01*
X50701Y-21661D01*
X50643Y-21802D01*
X50643Y-21900D01*
X49936Y-22607D01*
X49813Y-22607D01*
X49813Y-22260D01*
X49802Y-22047D01*
X49742Y-21900D01*
X49648Y-21873D01*
X49341Y-22181D01*
X49648Y-22489D01*
X49742Y-22462D01*
X49813Y-22260D01*
X49813Y-22607D01*
X49564Y-22607D01*
X49578Y-22559D01*
X49270Y-22252D01*
X48962Y-22559D01*
X48975Y-22607D01*
X48513Y-22607D01*
X48545Y-22594D01*
X48682Y-22457D01*
X48739Y-22319D01*
X48798Y-22462D01*
X48892Y-22489D01*
X49199Y-22181D01*
X48892Y-21873D01*
X48798Y-21900D01*
X48744Y-22053D01*
X48683Y-21906D01*
X48546Y-21769D01*
X48368Y-21694D01*
X48174Y-21694D01*
X47995Y-21768D01*
X47858Y-21905D01*
X47783Y-22083D01*
X47783Y-22277D01*
X47857Y-22456D01*
X47994Y-22593D01*
X48027Y-22607D01*
X47784Y-22607D01*
X47658Y-22480D01*
X47682Y-22457D01*
X47757Y-22279D01*
X47757Y-22085D01*
X47683Y-21906D01*
X47546Y-21769D01*
X47368Y-21694D01*
X47174Y-21694D01*
X46995Y-21768D01*
X46858Y-21905D01*
X46783Y-22083D01*
X46783Y-22277D01*
X46857Y-22456D01*
X46994Y-22593D01*
X47090Y-22633D01*
X47091Y-22634D01*
X47498Y-23042D01*
X47499Y-23042D01*
X47581Y-23098D01*
X47679Y-23117D01*
X50042Y-23117D01*
X50140Y-23098D01*
X50222Y-23042D01*
X51003Y-22261D01*
X51102Y-22261D01*
X51243Y-22203D01*
X51351Y-22095D01*
X51409Y-21954D01*
X51409Y-24714D01*
X51175Y-24948D01*
X51119Y-25082D01*
X51119Y-24623D01*
X51119Y-24377D01*
X51025Y-24149D01*
X50851Y-23975D01*
X50623Y-23881D01*
X50377Y-23881D01*
X50149Y-23975D01*
X49975Y-24149D01*
X49881Y-24377D01*
X49881Y-24623D01*
X49975Y-24851D01*
X50103Y-24979D01*
X49897Y-24979D01*
X49705Y-25058D01*
X49559Y-25204D01*
X49479Y-25396D01*
X49479Y-25603D01*
X49558Y-25795D01*
X49704Y-25941D01*
X49896Y-26021D01*
X50103Y-26021D01*
X50295Y-25942D01*
X50441Y-25796D01*
X50521Y-25604D01*
X50521Y-25397D01*
X50442Y-25205D01*
X50341Y-25104D01*
X50377Y-25119D01*
X50623Y-25119D01*
X50851Y-25025D01*
X51025Y-24851D01*
X51119Y-24623D01*
X51119Y-25082D01*
X51026Y-25306D01*
X51026Y-25693D01*
X51174Y-26051D01*
X51448Y-26325D01*
X51806Y-26474D01*
X52193Y-26474D01*
X52551Y-26326D01*
X52825Y-26052D01*
X52974Y-25694D01*
X52974Y-27151D01*
X52881Y-27377D01*
X52881Y-27623D01*
X52975Y-27851D01*
X53149Y-28025D01*
X53377Y-28119D01*
X53623Y-28119D01*
X53851Y-28025D01*
X54025Y-27851D01*
X54119Y-27623D01*
X54119Y-32485D01*
X54104Y-32479D01*
X53897Y-32479D01*
X53705Y-32558D01*
X53673Y-32590D01*
X53673Y-31110D01*
X53665Y-30844D01*
X53580Y-30641D01*
X53472Y-30599D01*
X53401Y-30670D01*
X53401Y-30528D01*
X53359Y-30420D01*
X53110Y-30327D01*
X52844Y-30335D01*
X52641Y-30420D01*
X52599Y-30528D01*
X53000Y-30929D01*
X53401Y-30528D01*
X53401Y-30670D01*
X53071Y-31000D01*
X53472Y-31401D01*
X53580Y-31359D01*
X53673Y-31110D01*
X53673Y-32590D01*
X53559Y-32704D01*
X53479Y-32896D01*
X53479Y-33103D01*
X53558Y-33295D01*
X53704Y-33441D01*
X53896Y-33521D01*
X54103Y-33521D01*
X54295Y-33442D01*
X54441Y-33296D01*
X54521Y-33104D01*
X54521Y-40397D01*
X54442Y-40205D01*
X54296Y-40059D01*
X54119Y-39985D01*
X54119Y-35123D01*
X54119Y-34877D01*
X54025Y-34649D01*
X53851Y-34475D01*
X53623Y-34381D01*
X53401Y-34381D01*
X53401Y-31472D01*
X53000Y-31071D01*
X52929Y-31142D01*
X52929Y-31000D01*
X52528Y-30599D01*
X52420Y-30641D01*
X52327Y-30890D01*
X52335Y-31156D01*
X52420Y-31359D01*
X52528Y-31401D01*
X52929Y-31000D01*
X52929Y-31142D01*
X52599Y-31472D01*
X52641Y-31580D01*
X52890Y-31673D01*
X53156Y-31665D01*
X53359Y-31580D01*
X53401Y-31472D01*
X53401Y-34381D01*
X53377Y-34381D01*
X53149Y-34475D01*
X52975Y-34649D01*
X52974Y-34651D01*
X52974Y-33194D01*
X52974Y-32807D01*
X52826Y-32449D01*
X52552Y-32175D01*
X52194Y-32026D01*
X51807Y-32026D01*
X51449Y-32174D01*
X51175Y-32448D01*
X51119Y-32582D01*
X51119Y-32123D01*
X51119Y-31877D01*
X51119Y-27623D01*
X51119Y-27377D01*
X51025Y-27149D01*
X50851Y-26975D01*
X50623Y-26881D01*
X50377Y-26881D01*
X50254Y-26931D01*
X50268Y-26918D01*
X50326Y-26777D01*
X50326Y-26625D01*
X50268Y-26484D01*
X50160Y-26376D01*
X50019Y-26318D01*
X49867Y-26318D01*
X49726Y-26376D01*
X49656Y-26446D01*
X47966Y-26446D01*
X47896Y-26376D01*
X47755Y-26318D01*
X47603Y-26318D01*
X47462Y-26376D01*
X47354Y-26484D01*
X47296Y-26625D01*
X47296Y-26777D01*
X47354Y-26918D01*
X47462Y-27026D01*
X47603Y-27084D01*
X47755Y-27084D01*
X47896Y-27026D01*
X47966Y-26956D01*
X49656Y-26956D01*
X49726Y-27026D01*
X49867Y-27084D01*
X50019Y-27084D01*
X50054Y-27069D01*
X49975Y-27149D01*
X49881Y-27377D01*
X49881Y-27623D01*
X49975Y-27851D01*
X50149Y-28025D01*
X50377Y-28119D01*
X50623Y-28119D01*
X50851Y-28025D01*
X51025Y-27851D01*
X51119Y-27623D01*
X51119Y-31877D01*
X51025Y-31649D01*
X50851Y-31475D01*
X50623Y-31381D01*
X50377Y-31381D01*
X50149Y-31475D01*
X49975Y-31649D01*
X49881Y-31877D01*
X49881Y-32123D01*
X49975Y-32351D01*
X50103Y-32479D01*
X49897Y-32479D01*
X49834Y-32504D01*
X49834Y-30714D01*
X49834Y-30562D01*
X49776Y-30421D01*
X49706Y-30351D01*
X49706Y-28563D01*
X49776Y-28493D01*
X49834Y-28352D01*
X49834Y-28200D01*
X49776Y-28059D01*
X49668Y-27951D01*
X49527Y-27893D01*
X49375Y-27893D01*
X49234Y-27951D01*
X49169Y-28016D01*
X49115Y-27962D01*
X48974Y-27904D01*
X48822Y-27904D01*
X48681Y-27962D01*
X48631Y-28011D01*
X48563Y-27943D01*
X48422Y-27885D01*
X48270Y-27885D01*
X48129Y-27943D01*
X48021Y-28051D01*
X47963Y-28192D01*
X47963Y-28344D01*
X48021Y-28485D01*
X48091Y-28555D01*
X48091Y-30382D01*
X48021Y-30452D01*
X47963Y-30593D01*
X47963Y-30745D01*
X48021Y-30886D01*
X48129Y-30994D01*
X48270Y-31052D01*
X48422Y-31052D01*
X48563Y-30994D01*
X48651Y-30906D01*
X48700Y-30955D01*
X48841Y-31013D01*
X48993Y-31013D01*
X49134Y-30955D01*
X49180Y-30909D01*
X49234Y-30963D01*
X49375Y-31021D01*
X49527Y-31021D01*
X49668Y-30963D01*
X49776Y-30855D01*
X49834Y-30714D01*
X49834Y-32504D01*
X49705Y-32558D01*
X49559Y-32704D01*
X49479Y-32896D01*
X49479Y-33103D01*
X49558Y-33295D01*
X49704Y-33441D01*
X49896Y-33521D01*
X50103Y-33521D01*
X50295Y-33442D01*
X50441Y-33296D01*
X50521Y-33104D01*
X50521Y-32897D01*
X50442Y-32705D01*
X50341Y-32604D01*
X50377Y-32619D01*
X50623Y-32619D01*
X50851Y-32525D01*
X51025Y-32351D01*
X51119Y-32123D01*
X51119Y-32582D01*
X51026Y-32806D01*
X51026Y-33193D01*
X51174Y-33551D01*
X51448Y-33825D01*
X51806Y-33974D01*
X52193Y-33974D01*
X52551Y-33826D01*
X52825Y-33552D01*
X52974Y-33194D01*
X52974Y-34651D01*
X52881Y-34877D01*
X52881Y-35123D01*
X52975Y-35351D01*
X53149Y-35525D01*
X53377Y-35619D01*
X53623Y-35619D01*
X53851Y-35525D01*
X54025Y-35351D01*
X54119Y-35123D01*
X54119Y-39985D01*
X54104Y-39979D01*
X53897Y-39979D01*
X53705Y-40058D01*
X53673Y-40090D01*
X53673Y-38610D01*
X53665Y-38344D01*
X53580Y-38141D01*
X53472Y-38099D01*
X53401Y-38170D01*
X53401Y-38028D01*
X53359Y-37920D01*
X53110Y-37827D01*
X52844Y-37835D01*
X52641Y-37920D01*
X52599Y-38028D01*
X53000Y-38429D01*
X53401Y-38028D01*
X53401Y-38170D01*
X53071Y-38500D01*
X53472Y-38901D01*
X53580Y-38859D01*
X53673Y-38610D01*
X53673Y-40090D01*
X53559Y-40204D01*
X53479Y-40396D01*
X53479Y-40603D01*
X53558Y-40795D01*
X53704Y-40941D01*
X53896Y-41021D01*
X54103Y-41021D01*
X54295Y-40942D01*
X54441Y-40796D01*
X54521Y-40604D01*
X54521Y-47897D01*
X54442Y-47705D01*
X54296Y-47559D01*
X54119Y-47485D01*
X54119Y-42623D01*
X54119Y-42377D01*
X54025Y-42149D01*
X53851Y-41975D01*
X53623Y-41881D01*
X53401Y-41881D01*
X53401Y-38972D01*
X53000Y-38571D01*
X52929Y-38642D01*
X52929Y-38500D01*
X52528Y-38099D01*
X52420Y-38141D01*
X52327Y-38390D01*
X52335Y-38656D01*
X52420Y-38859D01*
X52528Y-38901D01*
X52929Y-38500D01*
X52929Y-38642D01*
X52599Y-38972D01*
X52641Y-39080D01*
X52890Y-39173D01*
X53156Y-39165D01*
X53359Y-39080D01*
X53401Y-38972D01*
X53401Y-41881D01*
X53377Y-41881D01*
X53149Y-41975D01*
X52975Y-42149D01*
X52974Y-42151D01*
X52974Y-40694D01*
X52974Y-40307D01*
X52826Y-39949D01*
X52552Y-39675D01*
X52194Y-39526D01*
X51807Y-39526D01*
X51449Y-39674D01*
X51175Y-39948D01*
X51119Y-40082D01*
X51119Y-39623D01*
X51119Y-39377D01*
X51119Y-35123D01*
X51119Y-34877D01*
X51025Y-34649D01*
X50851Y-34475D01*
X50623Y-34381D01*
X50377Y-34381D01*
X50149Y-34475D01*
X49975Y-34649D01*
X49881Y-34877D01*
X49881Y-35123D01*
X49975Y-35351D01*
X50149Y-35525D01*
X50377Y-35619D01*
X50623Y-35619D01*
X50851Y-35525D01*
X51025Y-35351D01*
X51119Y-35123D01*
X51119Y-39377D01*
X51025Y-39149D01*
X50851Y-38975D01*
X50623Y-38881D01*
X50377Y-38881D01*
X50149Y-38975D01*
X49975Y-39149D01*
X49881Y-39377D01*
X49881Y-39623D01*
X49975Y-39851D01*
X50103Y-39979D01*
X49897Y-39979D01*
X49705Y-40058D01*
X49559Y-40204D01*
X49479Y-40396D01*
X49479Y-40603D01*
X49558Y-40795D01*
X49704Y-40941D01*
X49896Y-41021D01*
X50103Y-41021D01*
X50295Y-40942D01*
X50441Y-40796D01*
X50521Y-40604D01*
X50521Y-40397D01*
X50442Y-40205D01*
X50341Y-40104D01*
X50377Y-40119D01*
X50623Y-40119D01*
X50851Y-40025D01*
X51025Y-39851D01*
X51119Y-39623D01*
X51119Y-40082D01*
X51026Y-40306D01*
X51026Y-40693D01*
X51174Y-41051D01*
X51448Y-41325D01*
X51806Y-41474D01*
X52193Y-41474D01*
X52551Y-41326D01*
X52825Y-41052D01*
X52974Y-40694D01*
X52974Y-42151D01*
X52881Y-42377D01*
X52881Y-42623D01*
X52975Y-42851D01*
X53149Y-43025D01*
X53377Y-43119D01*
X53623Y-43119D01*
X53851Y-43025D01*
X54025Y-42851D01*
X54119Y-42623D01*
X54119Y-47485D01*
X54104Y-47479D01*
X53897Y-47479D01*
X53705Y-47558D01*
X53673Y-47590D01*
X53673Y-46110D01*
X53665Y-45844D01*
X53580Y-45641D01*
X53472Y-45599D01*
X53401Y-45670D01*
X53401Y-45528D01*
X53359Y-45420D01*
X53110Y-45327D01*
X52844Y-45335D01*
X52641Y-45420D01*
X52599Y-45528D01*
X53000Y-45929D01*
X53401Y-45528D01*
X53401Y-45670D01*
X53071Y-46000D01*
X53472Y-46401D01*
X53580Y-46359D01*
X53673Y-46110D01*
X53673Y-47590D01*
X53559Y-47704D01*
X53479Y-47896D01*
X53479Y-48103D01*
X53558Y-48295D01*
X53704Y-48441D01*
X53896Y-48521D01*
X54103Y-48521D01*
X54295Y-48442D01*
X54441Y-48296D01*
X54521Y-48104D01*
X54521Y-59608D01*
X53644Y-59608D01*
X53736Y-59570D01*
X54010Y-59296D01*
X54159Y-58938D01*
X54159Y-58551D01*
X54119Y-58454D01*
X54119Y-50123D01*
X54119Y-49877D01*
X54025Y-49649D01*
X53851Y-49475D01*
X53623Y-49381D01*
X53401Y-49381D01*
X53401Y-46472D01*
X53000Y-46071D01*
X52929Y-46142D01*
X52929Y-46000D01*
X52528Y-45599D01*
X52420Y-45641D01*
X52327Y-45890D01*
X52335Y-46156D01*
X52420Y-46359D01*
X52528Y-46401D01*
X52929Y-46000D01*
X52929Y-46142D01*
X52599Y-46472D01*
X52641Y-46580D01*
X52890Y-46673D01*
X53156Y-46665D01*
X53359Y-46580D01*
X53401Y-46472D01*
X53401Y-49381D01*
X53377Y-49381D01*
X53149Y-49475D01*
X52975Y-49649D01*
X52974Y-49651D01*
X52974Y-48194D01*
X52974Y-47807D01*
X52826Y-47449D01*
X52552Y-47175D01*
X52194Y-47026D01*
X51807Y-47026D01*
X51449Y-47174D01*
X51175Y-47448D01*
X51119Y-47582D01*
X51119Y-47123D01*
X51119Y-46877D01*
X51119Y-42623D01*
X51119Y-42377D01*
X51025Y-42149D01*
X50851Y-41975D01*
X50623Y-41881D01*
X50377Y-41881D01*
X50149Y-41975D01*
X49975Y-42149D01*
X49881Y-42377D01*
X49881Y-42623D01*
X49975Y-42851D01*
X50149Y-43025D01*
X50377Y-43119D01*
X50623Y-43119D01*
X50851Y-43025D01*
X51025Y-42851D01*
X51119Y-42623D01*
X51119Y-46877D01*
X51025Y-46649D01*
X50851Y-46475D01*
X50623Y-46381D01*
X50377Y-46381D01*
X50149Y-46475D01*
X49975Y-46649D01*
X49881Y-46877D01*
X49881Y-47123D01*
X49975Y-47351D01*
X50103Y-47479D01*
X49897Y-47479D01*
X49705Y-47558D01*
X49559Y-47704D01*
X49479Y-47896D01*
X49479Y-44361D01*
X49479Y-43880D01*
X49296Y-43438D01*
X49133Y-43330D01*
X49062Y-43401D01*
X49062Y-43259D01*
X48954Y-43096D01*
X48509Y-42913D01*
X48028Y-42913D01*
X47586Y-43096D01*
X47478Y-43259D01*
X48270Y-44051D01*
X49062Y-43259D01*
X49062Y-43401D01*
X48341Y-44122D01*
X49133Y-44914D01*
X49296Y-44806D01*
X49479Y-44361D01*
X49479Y-47896D01*
X49479Y-48103D01*
X49558Y-48295D01*
X49704Y-48441D01*
X49896Y-48521D01*
X50103Y-48521D01*
X50295Y-48442D01*
X50441Y-48296D01*
X50521Y-48104D01*
X50521Y-47897D01*
X50442Y-47705D01*
X50341Y-47604D01*
X50377Y-47619D01*
X50623Y-47619D01*
X50851Y-47525D01*
X51025Y-47351D01*
X51119Y-47123D01*
X51119Y-47582D01*
X51026Y-47806D01*
X51026Y-48193D01*
X51174Y-48551D01*
X51448Y-48825D01*
X51806Y-48974D01*
X52193Y-48974D01*
X52551Y-48826D01*
X52825Y-48552D01*
X52974Y-48194D01*
X52974Y-49651D01*
X52881Y-49877D01*
X52881Y-50123D01*
X52975Y-50351D01*
X53149Y-50525D01*
X53377Y-50619D01*
X53623Y-50619D01*
X53851Y-50525D01*
X54025Y-50351D01*
X54119Y-50123D01*
X54119Y-58454D01*
X54011Y-58193D01*
X53972Y-58154D01*
X53972Y-52902D01*
X53972Y-52589D01*
X53852Y-52300D01*
X53631Y-52078D01*
X53342Y-51958D01*
X53029Y-51958D01*
X52740Y-52078D01*
X52518Y-52299D01*
X52398Y-52588D01*
X52398Y-52901D01*
X52518Y-53190D01*
X52739Y-53412D01*
X53028Y-53532D01*
X53341Y-53532D01*
X53630Y-53412D01*
X53852Y-53191D01*
X53972Y-52902D01*
X53972Y-58154D01*
X53737Y-57919D01*
X53379Y-57770D01*
X52992Y-57770D01*
X52634Y-57918D01*
X52360Y-58192D01*
X52211Y-58550D01*
X52211Y-58937D01*
X52359Y-59295D01*
X52633Y-59569D01*
X52726Y-59608D01*
X51119Y-59608D01*
X51119Y-50123D01*
X51119Y-49877D01*
X51025Y-49649D01*
X50851Y-49475D01*
X50623Y-49381D01*
X50377Y-49381D01*
X50149Y-49475D01*
X49975Y-49649D01*
X49881Y-49877D01*
X49881Y-50123D01*
X49975Y-50351D01*
X50149Y-50525D01*
X50377Y-50619D01*
X50623Y-50619D01*
X50851Y-50525D01*
X51025Y-50351D01*
X51119Y-50123D01*
X51119Y-59608D01*
X51021Y-59608D01*
X51021Y-55604D01*
X51021Y-55397D01*
X50942Y-55205D01*
X50796Y-55059D01*
X50604Y-54979D01*
X50397Y-54979D01*
X50205Y-55058D01*
X50173Y-55090D01*
X50173Y-53610D01*
X50165Y-53344D01*
X50080Y-53141D01*
X49972Y-53099D01*
X49901Y-53170D01*
X49901Y-53028D01*
X49859Y-52920D01*
X49610Y-52827D01*
X49344Y-52835D01*
X49141Y-52920D01*
X49099Y-53028D01*
X49500Y-53429D01*
X49901Y-53028D01*
X49901Y-53170D01*
X49571Y-53500D01*
X49972Y-53901D01*
X50080Y-53859D01*
X50173Y-53610D01*
X50173Y-55090D01*
X50059Y-55204D01*
X49979Y-55396D01*
X49979Y-55603D01*
X50058Y-55795D01*
X50204Y-55941D01*
X50396Y-56021D01*
X50603Y-56021D01*
X50795Y-55942D01*
X50941Y-55796D01*
X51021Y-55604D01*
X51021Y-59608D01*
X50619Y-59608D01*
X50619Y-57623D01*
X50619Y-57377D01*
X50525Y-57149D01*
X50351Y-56975D01*
X50123Y-56881D01*
X49901Y-56881D01*
X49901Y-53972D01*
X49500Y-53571D01*
X49429Y-53642D01*
X49429Y-53500D01*
X49062Y-53133D01*
X49062Y-44985D01*
X48270Y-44193D01*
X48199Y-44264D01*
X48199Y-44122D01*
X47407Y-43330D01*
X47244Y-43438D01*
X47061Y-43883D01*
X47061Y-44364D01*
X47244Y-44806D01*
X47407Y-44914D01*
X48199Y-44122D01*
X48199Y-44264D01*
X47478Y-44985D01*
X47586Y-45148D01*
X48031Y-45331D01*
X48512Y-45331D01*
X48954Y-45148D01*
X49062Y-44985D01*
X49062Y-53133D01*
X49028Y-53099D01*
X48920Y-53141D01*
X48827Y-53390D01*
X48835Y-53656D01*
X48920Y-53859D01*
X49028Y-53901D01*
X49429Y-53500D01*
X49429Y-53642D01*
X49099Y-53972D01*
X49141Y-54080D01*
X49390Y-54173D01*
X49656Y-54165D01*
X49859Y-54080D01*
X49901Y-53972D01*
X49901Y-56881D01*
X49877Y-56881D01*
X49649Y-56975D01*
X49475Y-57149D01*
X49381Y-57377D01*
X49381Y-57623D01*
X49475Y-57851D01*
X49649Y-58025D01*
X49877Y-58119D01*
X50123Y-58119D01*
X50351Y-58025D01*
X50525Y-57851D01*
X50619Y-57623D01*
X50619Y-59608D01*
X47619Y-59608D01*
X47619Y-57623D01*
X47619Y-57377D01*
X47619Y-54623D01*
X47619Y-54377D01*
X47525Y-54149D01*
X47351Y-53975D01*
X47123Y-53881D01*
X47021Y-53881D01*
X47021Y-48104D01*
X47021Y-47897D01*
X47021Y-40604D01*
X47021Y-40397D01*
X47021Y-33104D01*
X47021Y-32897D01*
X47021Y-25604D01*
X47021Y-25397D01*
X46942Y-25205D01*
X46796Y-25059D01*
X46604Y-24979D01*
X46397Y-24979D01*
X46205Y-25058D01*
X46173Y-25090D01*
X46173Y-23610D01*
X46165Y-23344D01*
X46080Y-23141D01*
X45972Y-23099D01*
X45901Y-23170D01*
X45901Y-23028D01*
X45859Y-22920D01*
X45610Y-22827D01*
X45517Y-22829D01*
X45517Y-21604D01*
X45517Y-21398D01*
X45439Y-21208D01*
X45293Y-21062D01*
X45104Y-20983D01*
X44898Y-20983D01*
X44708Y-21061D01*
X44562Y-21207D01*
X44529Y-21283D01*
X44496Y-21202D01*
X44400Y-21171D01*
X44329Y-21242D01*
X44329Y-21100D01*
X44298Y-21004D01*
X44086Y-20927D01*
X43861Y-20938D01*
X43702Y-21004D01*
X43671Y-21100D01*
X44000Y-21429D01*
X44329Y-21100D01*
X44329Y-21242D01*
X44071Y-21500D01*
X44400Y-21829D01*
X44496Y-21798D01*
X44527Y-21710D01*
X44561Y-21792D01*
X44707Y-21938D01*
X44896Y-22017D01*
X45102Y-22017D01*
X45292Y-21939D01*
X45438Y-21793D01*
X45517Y-21604D01*
X45517Y-22829D01*
X45344Y-22835D01*
X45141Y-22920D01*
X45099Y-23028D01*
X45500Y-23429D01*
X45901Y-23028D01*
X45901Y-23170D01*
X45571Y-23500D01*
X45972Y-23901D01*
X46080Y-23859D01*
X46173Y-23610D01*
X46173Y-25090D01*
X46059Y-25204D01*
X45979Y-25396D01*
X45979Y-25603D01*
X46058Y-25795D01*
X46204Y-25941D01*
X46396Y-26021D01*
X46603Y-26021D01*
X46795Y-25942D01*
X46941Y-25796D01*
X47021Y-25604D01*
X47021Y-32897D01*
X46942Y-32705D01*
X46796Y-32559D01*
X46619Y-32485D01*
X46619Y-27623D01*
X46619Y-27377D01*
X46525Y-27149D01*
X46351Y-26975D01*
X46123Y-26881D01*
X45901Y-26881D01*
X45901Y-23972D01*
X45500Y-23571D01*
X45429Y-23642D01*
X45429Y-23500D01*
X45028Y-23099D01*
X44920Y-23141D01*
X44827Y-23390D01*
X44835Y-23656D01*
X44920Y-23859D01*
X45028Y-23901D01*
X45429Y-23500D01*
X45429Y-23642D01*
X45099Y-23972D01*
X45141Y-24080D01*
X45390Y-24173D01*
X45656Y-24165D01*
X45859Y-24080D01*
X45901Y-23972D01*
X45901Y-26881D01*
X45877Y-26881D01*
X45649Y-26975D01*
X45475Y-27149D01*
X45474Y-27151D01*
X45474Y-25694D01*
X45474Y-25307D01*
X45326Y-24949D01*
X45052Y-24675D01*
X44694Y-24526D01*
X44329Y-24526D01*
X44329Y-21900D01*
X44000Y-21571D01*
X43929Y-21642D01*
X43929Y-21500D01*
X43600Y-21171D01*
X43504Y-21202D01*
X43427Y-21414D01*
X43438Y-21639D01*
X43504Y-21798D01*
X43600Y-21829D01*
X43929Y-21500D01*
X43929Y-21642D01*
X43671Y-21900D01*
X43702Y-21996D01*
X43914Y-22073D01*
X44139Y-22062D01*
X44298Y-21996D01*
X44329Y-21900D01*
X44329Y-24526D01*
X44307Y-24526D01*
X43949Y-24674D01*
X43675Y-24948D01*
X43619Y-25082D01*
X43619Y-24623D01*
X43619Y-24377D01*
X43525Y-24149D01*
X43351Y-23975D01*
X43123Y-23881D01*
X42877Y-23881D01*
X42786Y-23918D01*
X42786Y-21920D01*
X42786Y-21439D01*
X42603Y-20997D01*
X42440Y-20889D01*
X41648Y-21681D01*
X42440Y-22473D01*
X42603Y-22365D01*
X42786Y-21920D01*
X42786Y-23918D01*
X42649Y-23975D01*
X42475Y-24149D01*
X42381Y-24377D01*
X42381Y-24623D01*
X42475Y-24851D01*
X42603Y-24979D01*
X42397Y-24979D01*
X42369Y-24990D01*
X42369Y-22544D01*
X41577Y-21752D01*
X40785Y-22544D01*
X40893Y-22707D01*
X41338Y-22890D01*
X41819Y-22890D01*
X42261Y-22707D01*
X42369Y-22544D01*
X42369Y-24990D01*
X42205Y-25058D01*
X42059Y-25204D01*
X41979Y-25396D01*
X41979Y-25603D01*
X42058Y-25795D01*
X42204Y-25941D01*
X42396Y-26021D01*
X42603Y-26021D01*
X42795Y-25942D01*
X42941Y-25796D01*
X43021Y-25604D01*
X43021Y-25397D01*
X42942Y-25205D01*
X42841Y-25104D01*
X42877Y-25119D01*
X43123Y-25119D01*
X43351Y-25025D01*
X43525Y-24851D01*
X43619Y-24623D01*
X43619Y-25082D01*
X43526Y-25306D01*
X43526Y-25693D01*
X43674Y-26051D01*
X43948Y-26325D01*
X44306Y-26474D01*
X44693Y-26474D01*
X45051Y-26326D01*
X45325Y-26052D01*
X45474Y-25694D01*
X45474Y-27151D01*
X45381Y-27377D01*
X45381Y-27623D01*
X45475Y-27851D01*
X45649Y-28025D01*
X45877Y-28119D01*
X46123Y-28119D01*
X46351Y-28025D01*
X46525Y-27851D01*
X46619Y-27623D01*
X46619Y-32485D01*
X46604Y-32479D01*
X46397Y-32479D01*
X46205Y-32558D01*
X46173Y-32590D01*
X46173Y-31110D01*
X46165Y-30844D01*
X46080Y-30641D01*
X45972Y-30599D01*
X45901Y-30670D01*
X45901Y-30528D01*
X45859Y-30420D01*
X45610Y-30327D01*
X45344Y-30335D01*
X45141Y-30420D01*
X45099Y-30528D01*
X45500Y-30929D01*
X45901Y-30528D01*
X45901Y-30670D01*
X45571Y-31000D01*
X45972Y-31401D01*
X46080Y-31359D01*
X46173Y-31110D01*
X46173Y-32590D01*
X46059Y-32704D01*
X45979Y-32896D01*
X45979Y-33103D01*
X46058Y-33295D01*
X46204Y-33441D01*
X46396Y-33521D01*
X46603Y-33521D01*
X46795Y-33442D01*
X46941Y-33296D01*
X47021Y-33104D01*
X47021Y-40397D01*
X46942Y-40205D01*
X46796Y-40059D01*
X46619Y-39985D01*
X46619Y-35123D01*
X46619Y-34877D01*
X46525Y-34649D01*
X46351Y-34475D01*
X46123Y-34381D01*
X45901Y-34381D01*
X45901Y-31472D01*
X45500Y-31071D01*
X45429Y-31142D01*
X45429Y-31000D01*
X45028Y-30599D01*
X44920Y-30641D01*
X44827Y-30890D01*
X44835Y-31156D01*
X44920Y-31359D01*
X45028Y-31401D01*
X45429Y-31000D01*
X45429Y-31142D01*
X45099Y-31472D01*
X45141Y-31580D01*
X45390Y-31673D01*
X45656Y-31665D01*
X45859Y-31580D01*
X45901Y-31472D01*
X45901Y-34381D01*
X45877Y-34381D01*
X45649Y-34475D01*
X45475Y-34649D01*
X45474Y-34651D01*
X45474Y-33194D01*
X45474Y-32807D01*
X45326Y-32449D01*
X45052Y-32175D01*
X44694Y-32026D01*
X44307Y-32026D01*
X43949Y-32174D01*
X43675Y-32448D01*
X43619Y-32582D01*
X43619Y-32123D01*
X43619Y-31877D01*
X43619Y-27623D01*
X43619Y-27377D01*
X43525Y-27149D01*
X43351Y-26975D01*
X43123Y-26881D01*
X42877Y-26881D01*
X42649Y-26975D01*
X42475Y-27149D01*
X42381Y-27377D01*
X42381Y-27623D01*
X42475Y-27851D01*
X42649Y-28025D01*
X42877Y-28119D01*
X43123Y-28119D01*
X43351Y-28025D01*
X43525Y-27851D01*
X43619Y-27623D01*
X43619Y-31877D01*
X43525Y-31649D01*
X43351Y-31475D01*
X43123Y-31381D01*
X42877Y-31381D01*
X42649Y-31475D01*
X42475Y-31649D01*
X42381Y-31877D01*
X42381Y-32123D01*
X42475Y-32351D01*
X42603Y-32479D01*
X42397Y-32479D01*
X42205Y-32558D01*
X42059Y-32704D01*
X41979Y-32896D01*
X41979Y-33103D01*
X42058Y-33295D01*
X42204Y-33441D01*
X42396Y-33521D01*
X42603Y-33521D01*
X42795Y-33442D01*
X42941Y-33296D01*
X43021Y-33104D01*
X43021Y-32897D01*
X42942Y-32705D01*
X42841Y-32604D01*
X42877Y-32619D01*
X43123Y-32619D01*
X43351Y-32525D01*
X43525Y-32351D01*
X43619Y-32123D01*
X43619Y-32582D01*
X43526Y-32806D01*
X43526Y-33193D01*
X43674Y-33551D01*
X43948Y-33825D01*
X44306Y-33974D01*
X44693Y-33974D01*
X45051Y-33826D01*
X45325Y-33552D01*
X45474Y-33194D01*
X45474Y-34651D01*
X45381Y-34877D01*
X45381Y-35123D01*
X45475Y-35351D01*
X45649Y-35525D01*
X45877Y-35619D01*
X46123Y-35619D01*
X46351Y-35525D01*
X46525Y-35351D01*
X46619Y-35123D01*
X46619Y-39985D01*
X46604Y-39979D01*
X46397Y-39979D01*
X46205Y-40058D01*
X46173Y-40090D01*
X46173Y-38610D01*
X46165Y-38344D01*
X46080Y-38141D01*
X45972Y-38099D01*
X45901Y-38170D01*
X45901Y-38028D01*
X45859Y-37920D01*
X45610Y-37827D01*
X45344Y-37835D01*
X45141Y-37920D01*
X45099Y-38028D01*
X45500Y-38429D01*
X45901Y-38028D01*
X45901Y-38170D01*
X45571Y-38500D01*
X45972Y-38901D01*
X46080Y-38859D01*
X46173Y-38610D01*
X46173Y-40090D01*
X46059Y-40204D01*
X45979Y-40396D01*
X45979Y-40603D01*
X46058Y-40795D01*
X46204Y-40941D01*
X46396Y-41021D01*
X46603Y-41021D01*
X46795Y-40942D01*
X46941Y-40796D01*
X47021Y-40604D01*
X47021Y-47897D01*
X46942Y-47705D01*
X46796Y-47559D01*
X46619Y-47485D01*
X46619Y-42623D01*
X46619Y-42377D01*
X46525Y-42149D01*
X46351Y-41975D01*
X46123Y-41881D01*
X45901Y-41881D01*
X45901Y-38972D01*
X45500Y-38571D01*
X45429Y-38642D01*
X45429Y-38500D01*
X45028Y-38099D01*
X44920Y-38141D01*
X44827Y-38390D01*
X44835Y-38656D01*
X44920Y-38859D01*
X45028Y-38901D01*
X45429Y-38500D01*
X45429Y-38642D01*
X45099Y-38972D01*
X45141Y-39080D01*
X45390Y-39173D01*
X45656Y-39165D01*
X45859Y-39080D01*
X45901Y-38972D01*
X45901Y-41881D01*
X45877Y-41881D01*
X45649Y-41975D01*
X45475Y-42149D01*
X45474Y-42151D01*
X45474Y-40694D01*
X45474Y-40307D01*
X45326Y-39949D01*
X45052Y-39675D01*
X44694Y-39526D01*
X44307Y-39526D01*
X43949Y-39674D01*
X43675Y-39948D01*
X43619Y-40082D01*
X43619Y-39623D01*
X43619Y-39377D01*
X43619Y-35123D01*
X43619Y-34877D01*
X43525Y-34649D01*
X43351Y-34475D01*
X43123Y-34381D01*
X42877Y-34381D01*
X42649Y-34475D01*
X42475Y-34649D01*
X42381Y-34877D01*
X42381Y-35123D01*
X42475Y-35351D01*
X42649Y-35525D01*
X42877Y-35619D01*
X43123Y-35619D01*
X43351Y-35525D01*
X43525Y-35351D01*
X43619Y-35123D01*
X43619Y-39377D01*
X43525Y-39149D01*
X43351Y-38975D01*
X43123Y-38881D01*
X42877Y-38881D01*
X42649Y-38975D01*
X42475Y-39149D01*
X42381Y-39377D01*
X42381Y-39623D01*
X42475Y-39851D01*
X42603Y-39979D01*
X42397Y-39979D01*
X42205Y-40058D01*
X42059Y-40204D01*
X41979Y-40396D01*
X41979Y-40603D01*
X42058Y-40795D01*
X42204Y-40941D01*
X42396Y-41021D01*
X42603Y-41021D01*
X42795Y-40942D01*
X42941Y-40796D01*
X43021Y-40604D01*
X43021Y-40397D01*
X42942Y-40205D01*
X42841Y-40104D01*
X42877Y-40119D01*
X43123Y-40119D01*
X43351Y-40025D01*
X43525Y-39851D01*
X43619Y-39623D01*
X43619Y-40082D01*
X43526Y-40306D01*
X43526Y-40693D01*
X43674Y-41051D01*
X43948Y-41325D01*
X44306Y-41474D01*
X44693Y-41474D01*
X45051Y-41326D01*
X45325Y-41052D01*
X45474Y-40694D01*
X45474Y-42151D01*
X45381Y-42377D01*
X45381Y-42623D01*
X45475Y-42851D01*
X45649Y-43025D01*
X45877Y-43119D01*
X46123Y-43119D01*
X46351Y-43025D01*
X46525Y-42851D01*
X46619Y-42623D01*
X46619Y-47485D01*
X46604Y-47479D01*
X46397Y-47479D01*
X46205Y-47558D01*
X46173Y-47590D01*
X46173Y-46110D01*
X46165Y-45844D01*
X46080Y-45641D01*
X45972Y-45599D01*
X45901Y-45670D01*
X45901Y-45528D01*
X45859Y-45420D01*
X45610Y-45327D01*
X45344Y-45335D01*
X45141Y-45420D01*
X45099Y-45528D01*
X45500Y-45929D01*
X45901Y-45528D01*
X45901Y-45670D01*
X45571Y-46000D01*
X45972Y-46401D01*
X46080Y-46359D01*
X46173Y-46110D01*
X46173Y-47590D01*
X46059Y-47704D01*
X45979Y-47896D01*
X45979Y-48103D01*
X46058Y-48295D01*
X46204Y-48441D01*
X46396Y-48521D01*
X46603Y-48521D01*
X46795Y-48442D01*
X46941Y-48296D01*
X47021Y-48104D01*
X47021Y-53881D01*
X46877Y-53881D01*
X46649Y-53975D01*
X46619Y-54005D01*
X46619Y-50123D01*
X46619Y-49877D01*
X46525Y-49649D01*
X46351Y-49475D01*
X46123Y-49381D01*
X45901Y-49381D01*
X45901Y-46472D01*
X45500Y-46071D01*
X45429Y-46142D01*
X45429Y-46000D01*
X45028Y-45599D01*
X44920Y-45641D01*
X44827Y-45890D01*
X44835Y-46156D01*
X44920Y-46359D01*
X45028Y-46401D01*
X45429Y-46000D01*
X45429Y-46142D01*
X45099Y-46472D01*
X45141Y-46580D01*
X45390Y-46673D01*
X45656Y-46665D01*
X45859Y-46580D01*
X45901Y-46472D01*
X45901Y-49381D01*
X45877Y-49381D01*
X45649Y-49475D01*
X45475Y-49649D01*
X45474Y-49651D01*
X45474Y-48194D01*
X45474Y-47807D01*
X45326Y-47449D01*
X45052Y-47175D01*
X44694Y-47026D01*
X44307Y-47026D01*
X43949Y-47174D01*
X43675Y-47448D01*
X43619Y-47582D01*
X43619Y-47123D01*
X43619Y-46877D01*
X43619Y-42623D01*
X43619Y-42377D01*
X43525Y-42149D01*
X43351Y-41975D01*
X43123Y-41881D01*
X42877Y-41881D01*
X42649Y-41975D01*
X42475Y-42149D01*
X42381Y-42377D01*
X42381Y-42623D01*
X42475Y-42851D01*
X42649Y-43025D01*
X42877Y-43119D01*
X43123Y-43119D01*
X43351Y-43025D01*
X43525Y-42851D01*
X43619Y-42623D01*
X43619Y-46877D01*
X43525Y-46649D01*
X43351Y-46475D01*
X43123Y-46381D01*
X42877Y-46381D01*
X42649Y-46475D01*
X42475Y-46649D01*
X42381Y-46877D01*
X42381Y-47123D01*
X42475Y-47351D01*
X42603Y-47479D01*
X42397Y-47479D01*
X42205Y-47558D01*
X42059Y-47704D01*
X41979Y-47896D01*
X41979Y-48103D01*
X42058Y-48295D01*
X42204Y-48441D01*
X42396Y-48521D01*
X42603Y-48521D01*
X42795Y-48442D01*
X42941Y-48296D01*
X43021Y-48104D01*
X43021Y-47897D01*
X42942Y-47705D01*
X42841Y-47604D01*
X42877Y-47619D01*
X43123Y-47619D01*
X43351Y-47525D01*
X43525Y-47351D01*
X43619Y-47123D01*
X43619Y-47582D01*
X43526Y-47806D01*
X43526Y-48193D01*
X43674Y-48551D01*
X43948Y-48825D01*
X44306Y-48974D01*
X44693Y-48974D01*
X45051Y-48826D01*
X45325Y-48552D01*
X45474Y-48194D01*
X45474Y-49651D01*
X45381Y-49877D01*
X45381Y-50123D01*
X45475Y-50351D01*
X45649Y-50525D01*
X45877Y-50619D01*
X46123Y-50619D01*
X46351Y-50525D01*
X46525Y-50351D01*
X46619Y-50123D01*
X46619Y-54005D01*
X46475Y-54149D01*
X46381Y-54377D01*
X46381Y-54623D01*
X46475Y-54851D01*
X46603Y-54979D01*
X46397Y-54979D01*
X46205Y-55058D01*
X46059Y-55204D01*
X45979Y-55396D01*
X45979Y-55603D01*
X46058Y-55795D01*
X46204Y-55941D01*
X46396Y-56021D01*
X46603Y-56021D01*
X46795Y-55942D01*
X46941Y-55796D01*
X47021Y-55604D01*
X47021Y-55397D01*
X46942Y-55205D01*
X46841Y-55104D01*
X46877Y-55119D01*
X47123Y-55119D01*
X47351Y-55025D01*
X47525Y-54851D01*
X47619Y-54623D01*
X47619Y-57377D01*
X47525Y-57149D01*
X47351Y-56975D01*
X47123Y-56881D01*
X46877Y-56881D01*
X46649Y-56975D01*
X46475Y-57149D01*
X46381Y-57377D01*
X46381Y-57623D01*
X46475Y-57851D01*
X46649Y-58025D01*
X46877Y-58119D01*
X47123Y-58119D01*
X47351Y-58025D01*
X47525Y-57851D01*
X47619Y-57623D01*
X47619Y-59608D01*
X44274Y-59608D01*
X44366Y-59570D01*
X44640Y-59296D01*
X44789Y-58938D01*
X44789Y-58551D01*
X44641Y-58193D01*
X44602Y-58154D01*
X44602Y-52902D01*
X44602Y-52589D01*
X44482Y-52300D01*
X44261Y-52078D01*
X43972Y-51958D01*
X43659Y-51958D01*
X43619Y-51974D01*
X43619Y-50123D01*
X43619Y-49877D01*
X43525Y-49649D01*
X43351Y-49475D01*
X43123Y-49381D01*
X42877Y-49381D01*
X42649Y-49475D01*
X42475Y-49649D01*
X42381Y-49877D01*
X42381Y-50123D01*
X42475Y-50351D01*
X42649Y-50525D01*
X42877Y-50619D01*
X43123Y-50619D01*
X43351Y-50525D01*
X43525Y-50351D01*
X43619Y-50123D01*
X43619Y-51974D01*
X43370Y-52078D01*
X43148Y-52299D01*
X43028Y-52588D01*
X43028Y-52901D01*
X43148Y-53190D01*
X43369Y-53412D01*
X43658Y-53532D01*
X43971Y-53532D01*
X44260Y-53412D01*
X44482Y-53191D01*
X44602Y-52902D01*
X44602Y-58154D01*
X44367Y-57919D01*
X44009Y-57770D01*
X43622Y-57770D01*
X43264Y-57918D01*
X42990Y-58192D01*
X42841Y-58550D01*
X42841Y-58937D01*
X42989Y-59295D01*
X43263Y-59569D01*
X43356Y-59608D01*
X42786Y-59608D01*
X42786Y-58928D01*
X42786Y-58447D01*
X42603Y-58005D01*
X42440Y-57897D01*
X42369Y-57968D01*
X42369Y-57826D01*
X42261Y-57663D01*
X41816Y-57480D01*
X41335Y-57480D01*
X40893Y-57663D01*
X40785Y-57826D01*
X41577Y-58618D01*
X42369Y-57826D01*
X42369Y-57968D01*
X41648Y-58689D01*
X42440Y-59481D01*
X42603Y-59373D01*
X42786Y-58928D01*
X42786Y-59608D01*
X42331Y-59608D01*
X42369Y-59552D01*
X41577Y-58760D01*
X40785Y-59552D01*
X40822Y-59608D01*
X40658Y-59608D01*
X40658Y-59443D01*
X40714Y-59481D01*
X41506Y-58689D01*
X40714Y-57897D01*
X40658Y-57934D01*
X40658Y-22435D01*
X40714Y-22473D01*
X41506Y-21681D01*
X40714Y-20889D01*
X40658Y-20926D01*
X40658Y-20762D01*
X40822Y-20762D01*
X40785Y-20818D01*
X41577Y-21610D01*
X42369Y-20818D01*
X42331Y-20762D01*
X46826Y-20762D01*
X46812Y-20776D01*
X46784Y-20844D01*
X46784Y-20918D01*
X46784Y-21518D01*
X46812Y-21586D01*
X46865Y-21639D01*
X46933Y-21667D01*
X47007Y-21667D01*
X47607Y-21667D01*
X47675Y-21639D01*
X47728Y-21586D01*
X47756Y-21518D01*
X47756Y-21444D01*
X47756Y-20844D01*
X47728Y-20776D01*
X47714Y-20762D01*
X48009Y-20762D01*
X47995Y-20768D01*
X47858Y-20905D01*
X47783Y-21083D01*
X47783Y-21277D01*
X47857Y-21456D01*
X47994Y-21593D01*
X48172Y-21668D01*
X48366Y-21668D01*
X48545Y-21594D01*
X48682Y-21457D01*
X48757Y-21279D01*
X48757Y-21085D01*
X48683Y-20906D01*
X48546Y-20769D01*
X48529Y-20762D01*
X49009Y-20762D01*
X48995Y-20768D01*
X48858Y-20905D01*
X48783Y-21083D01*
X48783Y-21277D01*
X48857Y-21456D01*
X48994Y-21593D01*
X49131Y-21650D01*
X48989Y-21709D01*
X48962Y-21803D01*
X49270Y-22110D01*
X49578Y-21803D01*
X49551Y-21709D01*
X49397Y-21655D01*
X49545Y-21594D01*
X49682Y-21457D01*
X49757Y-21279D01*
X49757Y-21085D01*
X49683Y-20906D01*
X49546Y-20769D01*
X49529Y-20762D01*
X69168Y-20762D01*
X69131Y-20818D01*
X69923Y-21610D01*
X70715Y-20818D01*
X70677Y-20762D01*
X70842Y-20762D01*
X70842Y-20926D01*
X70786Y-20889D01*
X69994Y-21681D01*
X70786Y-22473D01*
X70842Y-22435D01*
X70842Y-57934D01*
X70786Y-57897D01*
X70715Y-57968D01*
X70715Y-57826D01*
X70715Y-22544D01*
X69923Y-21752D01*
X69852Y-21823D01*
X69852Y-21681D01*
X69060Y-20889D01*
X68897Y-20997D01*
X68714Y-21442D01*
X68714Y-21923D01*
X68897Y-22365D01*
X69060Y-22473D01*
X69852Y-21681D01*
X69852Y-21823D01*
X69131Y-22544D01*
X69239Y-22707D01*
X69684Y-22890D01*
X70165Y-22890D01*
X70607Y-22707D01*
X70715Y-22544D01*
X70715Y-57826D01*
X70607Y-57663D01*
X70542Y-57636D01*
X70542Y-56592D01*
X70542Y-56279D01*
X70542Y-47222D01*
X70542Y-46909D01*
X70542Y-41592D01*
X70542Y-41279D01*
X70542Y-32222D01*
X70542Y-31909D01*
X70422Y-31620D01*
X70201Y-31398D01*
X69912Y-31278D01*
X69599Y-31278D01*
X69521Y-31310D01*
X69521Y-25604D01*
X69521Y-25397D01*
X69442Y-25205D01*
X69296Y-25059D01*
X69104Y-24979D01*
X68897Y-24979D01*
X68705Y-25058D01*
X68673Y-25090D01*
X68673Y-23610D01*
X68665Y-23344D01*
X68580Y-23141D01*
X68472Y-23099D01*
X68401Y-23170D01*
X68401Y-23028D01*
X68359Y-22920D01*
X68110Y-22827D01*
X67844Y-22835D01*
X67641Y-22920D01*
X67599Y-23028D01*
X68000Y-23429D01*
X68401Y-23028D01*
X68401Y-23170D01*
X68071Y-23500D01*
X68472Y-23901D01*
X68580Y-23859D01*
X68673Y-23610D01*
X68673Y-25090D01*
X68559Y-25204D01*
X68479Y-25396D01*
X68479Y-25603D01*
X68558Y-25795D01*
X68704Y-25941D01*
X68896Y-26021D01*
X69103Y-26021D01*
X69295Y-25942D01*
X69441Y-25796D01*
X69521Y-25604D01*
X69521Y-31310D01*
X69310Y-31398D01*
X69119Y-31588D01*
X69119Y-27623D01*
X69119Y-27377D01*
X69025Y-27149D01*
X68851Y-26975D01*
X68623Y-26881D01*
X68401Y-26881D01*
X68401Y-23972D01*
X68000Y-23571D01*
X67929Y-23642D01*
X67929Y-23500D01*
X67528Y-23099D01*
X67420Y-23141D01*
X67327Y-23390D01*
X67335Y-23656D01*
X67420Y-23859D01*
X67528Y-23901D01*
X67929Y-23500D01*
X67929Y-23642D01*
X67599Y-23972D01*
X67641Y-24080D01*
X67890Y-24173D01*
X68156Y-24165D01*
X68359Y-24080D01*
X68401Y-23972D01*
X68401Y-26881D01*
X68377Y-26881D01*
X68149Y-26975D01*
X67975Y-27149D01*
X67974Y-27151D01*
X67974Y-25694D01*
X67974Y-25307D01*
X67826Y-24949D01*
X67552Y-24675D01*
X67194Y-24526D01*
X66807Y-24526D01*
X66449Y-24674D01*
X66175Y-24948D01*
X66119Y-25082D01*
X66119Y-24623D01*
X66119Y-24377D01*
X66025Y-24149D01*
X65851Y-23975D01*
X65623Y-23881D01*
X65377Y-23881D01*
X65149Y-23975D01*
X64975Y-24149D01*
X64881Y-24377D01*
X64881Y-24623D01*
X64975Y-24851D01*
X65103Y-24979D01*
X64897Y-24979D01*
X64705Y-25058D01*
X64559Y-25204D01*
X64479Y-25396D01*
X64479Y-25603D01*
X64558Y-25795D01*
X64704Y-25941D01*
X64896Y-26021D01*
X65103Y-26021D01*
X65295Y-25942D01*
X65441Y-25796D01*
X65521Y-25604D01*
X65521Y-25397D01*
X65442Y-25205D01*
X65341Y-25104D01*
X65377Y-25119D01*
X65623Y-25119D01*
X65851Y-25025D01*
X66025Y-24851D01*
X66119Y-24623D01*
X66119Y-25082D01*
X66026Y-25306D01*
X66026Y-25693D01*
X66174Y-26051D01*
X66448Y-26325D01*
X66806Y-26474D01*
X67193Y-26474D01*
X67551Y-26326D01*
X67825Y-26052D01*
X67974Y-25694D01*
X67974Y-27151D01*
X67881Y-27377D01*
X67881Y-27623D01*
X67975Y-27851D01*
X68149Y-28025D01*
X68377Y-28119D01*
X68623Y-28119D01*
X68851Y-28025D01*
X69025Y-27851D01*
X69119Y-27623D01*
X69119Y-31588D01*
X69088Y-31619D01*
X68968Y-31908D01*
X68968Y-32221D01*
X69088Y-32510D01*
X69309Y-32732D01*
X69598Y-32852D01*
X69911Y-32852D01*
X70200Y-32732D01*
X70422Y-32511D01*
X70542Y-32222D01*
X70542Y-41279D01*
X70422Y-40990D01*
X70201Y-40768D01*
X69912Y-40648D01*
X69673Y-40648D01*
X69673Y-37860D01*
X69665Y-37594D01*
X69580Y-37391D01*
X69472Y-37349D01*
X69401Y-37420D01*
X69401Y-37278D01*
X69359Y-37170D01*
X69110Y-37077D01*
X68844Y-37085D01*
X68641Y-37170D01*
X68619Y-37226D01*
X68619Y-35373D01*
X68619Y-35127D01*
X68525Y-34899D01*
X68351Y-34725D01*
X68123Y-34631D01*
X67877Y-34631D01*
X67649Y-34725D01*
X67521Y-34853D01*
X67521Y-34647D01*
X67442Y-34455D01*
X67296Y-34309D01*
X67104Y-34229D01*
X66897Y-34229D01*
X66705Y-34308D01*
X66559Y-34454D01*
X66479Y-34646D01*
X66479Y-34853D01*
X66558Y-35045D01*
X66704Y-35191D01*
X66896Y-35271D01*
X67103Y-35271D01*
X67295Y-35192D01*
X67395Y-35091D01*
X67381Y-35127D01*
X67381Y-35373D01*
X67475Y-35601D01*
X67649Y-35775D01*
X67877Y-35869D01*
X68123Y-35869D01*
X68351Y-35775D01*
X68525Y-35601D01*
X68619Y-35373D01*
X68619Y-37226D01*
X68599Y-37278D01*
X69000Y-37679D01*
X69401Y-37278D01*
X69401Y-37420D01*
X69071Y-37750D01*
X69472Y-38151D01*
X69580Y-38109D01*
X69673Y-37860D01*
X69673Y-40648D01*
X69599Y-40648D01*
X69401Y-40730D01*
X69401Y-38222D01*
X69000Y-37821D01*
X68929Y-37892D01*
X68929Y-37750D01*
X68528Y-37349D01*
X68420Y-37391D01*
X68327Y-37640D01*
X68335Y-37906D01*
X68420Y-38109D01*
X68528Y-38151D01*
X68929Y-37750D01*
X68929Y-37892D01*
X68599Y-38222D01*
X68641Y-38330D01*
X68890Y-38423D01*
X69156Y-38415D01*
X69359Y-38330D01*
X69401Y-38222D01*
X69401Y-40730D01*
X69310Y-40768D01*
X69088Y-40989D01*
X68968Y-41278D01*
X68968Y-41591D01*
X69088Y-41880D01*
X69309Y-42102D01*
X69598Y-42222D01*
X69911Y-42222D01*
X70200Y-42102D01*
X70422Y-41881D01*
X70542Y-41592D01*
X70542Y-46909D01*
X70422Y-46620D01*
X70201Y-46398D01*
X69912Y-46278D01*
X69599Y-46278D01*
X69310Y-46398D01*
X69088Y-46619D01*
X68968Y-46908D01*
X68968Y-47221D01*
X69088Y-47510D01*
X69309Y-47732D01*
X69598Y-47852D01*
X69911Y-47852D01*
X70200Y-47732D01*
X70422Y-47511D01*
X70542Y-47222D01*
X70542Y-56279D01*
X70422Y-55990D01*
X70201Y-55768D01*
X69912Y-55648D01*
X69673Y-55648D01*
X69673Y-52860D01*
X69665Y-52594D01*
X69580Y-52391D01*
X69472Y-52349D01*
X69401Y-52420D01*
X69401Y-52278D01*
X69359Y-52170D01*
X69110Y-52077D01*
X68844Y-52085D01*
X68641Y-52170D01*
X68619Y-52226D01*
X68619Y-50373D01*
X68619Y-50127D01*
X68525Y-49899D01*
X68351Y-49725D01*
X68123Y-49631D01*
X67877Y-49631D01*
X67649Y-49725D01*
X67521Y-49853D01*
X67521Y-49647D01*
X67521Y-38854D01*
X67521Y-38647D01*
X67442Y-38455D01*
X67296Y-38309D01*
X67104Y-38229D01*
X66897Y-38229D01*
X66705Y-38308D01*
X66559Y-38454D01*
X66479Y-38646D01*
X66479Y-38853D01*
X66558Y-39045D01*
X66704Y-39191D01*
X66896Y-39271D01*
X67103Y-39271D01*
X67295Y-39192D01*
X67441Y-39046D01*
X67521Y-38854D01*
X67521Y-49647D01*
X67442Y-49455D01*
X67296Y-49309D01*
X67104Y-49229D01*
X66897Y-49229D01*
X66705Y-49308D01*
X66559Y-49454D01*
X66479Y-49646D01*
X66479Y-49853D01*
X66558Y-50045D01*
X66704Y-50191D01*
X66896Y-50271D01*
X67103Y-50271D01*
X67295Y-50192D01*
X67395Y-50091D01*
X67381Y-50127D01*
X67381Y-50373D01*
X67475Y-50601D01*
X67649Y-50775D01*
X67877Y-50869D01*
X68123Y-50869D01*
X68351Y-50775D01*
X68525Y-50601D01*
X68619Y-50373D01*
X68619Y-52226D01*
X68599Y-52278D01*
X69000Y-52679D01*
X69401Y-52278D01*
X69401Y-52420D01*
X69071Y-52750D01*
X69472Y-53151D01*
X69580Y-53109D01*
X69673Y-52860D01*
X69673Y-55648D01*
X69599Y-55648D01*
X69401Y-55730D01*
X69401Y-53222D01*
X69000Y-52821D01*
X68929Y-52892D01*
X68929Y-52750D01*
X68528Y-52349D01*
X68420Y-52391D01*
X68327Y-52640D01*
X68335Y-52906D01*
X68420Y-53109D01*
X68528Y-53151D01*
X68929Y-52750D01*
X68929Y-52892D01*
X68599Y-53222D01*
X68641Y-53330D01*
X68890Y-53423D01*
X69156Y-53415D01*
X69359Y-53330D01*
X69401Y-53222D01*
X69401Y-55730D01*
X69310Y-55768D01*
X69088Y-55989D01*
X68968Y-56278D01*
X68968Y-56591D01*
X69088Y-56880D01*
X69309Y-57102D01*
X69598Y-57222D01*
X69911Y-57222D01*
X70200Y-57102D01*
X70422Y-56881D01*
X70542Y-56592D01*
X70542Y-57636D01*
X70162Y-57480D01*
X69681Y-57480D01*
X69239Y-57663D01*
X69131Y-57826D01*
X69923Y-58618D01*
X70715Y-57826D01*
X70715Y-57968D01*
X69994Y-58689D01*
X70786Y-59481D01*
X70842Y-59443D01*
X70842Y-59608D01*
X70842Y-59608D01*
G37*
G54D19*
X70842Y-59608D02*
X70677Y-59608D01*
X70715Y-59552D01*
X69923Y-58760D01*
X69852Y-58831D01*
X69852Y-58689D01*
X69060Y-57897D01*
X68897Y-58005D01*
X68714Y-58450D01*
X68714Y-58931D01*
X68897Y-59373D01*
X69060Y-59481D01*
X69852Y-58689D01*
X69852Y-58831D01*
X69131Y-59552D01*
X69168Y-59608D01*
X67521Y-59608D01*
X67521Y-53854D01*
X67521Y-53647D01*
X67442Y-53455D01*
X67296Y-53309D01*
X67104Y-53229D01*
X66897Y-53229D01*
X66705Y-53308D01*
X66559Y-53454D01*
X66479Y-53646D01*
X66479Y-53853D01*
X66558Y-54045D01*
X66704Y-54191D01*
X66896Y-54271D01*
X67103Y-54271D01*
X67295Y-54192D01*
X67441Y-54046D01*
X67521Y-53854D01*
X67521Y-59608D01*
X66119Y-59608D01*
X66119Y-27623D01*
X66119Y-27377D01*
X66025Y-27149D01*
X65851Y-26975D01*
X65623Y-26881D01*
X65377Y-26881D01*
X65149Y-26975D01*
X64975Y-27149D01*
X64881Y-27377D01*
X64881Y-27623D01*
X64975Y-27851D01*
X65149Y-28025D01*
X65377Y-28119D01*
X65623Y-28119D01*
X65851Y-28025D01*
X66025Y-27851D01*
X66119Y-27623D01*
X66119Y-59608D01*
X65619Y-59608D01*
X65619Y-53373D01*
X65619Y-53127D01*
X65619Y-50373D01*
X65619Y-50127D01*
X65619Y-38373D01*
X65619Y-38127D01*
X65619Y-35373D01*
X65619Y-35127D01*
X65525Y-34899D01*
X65351Y-34725D01*
X65123Y-34631D01*
X64877Y-34631D01*
X64730Y-34691D01*
X64730Y-32259D01*
X64730Y-31872D01*
X64582Y-31514D01*
X64308Y-31240D01*
X63950Y-31091D01*
X63563Y-31091D01*
X63205Y-31239D01*
X62931Y-31513D01*
X62782Y-31871D01*
X62782Y-32258D01*
X62930Y-32616D01*
X63204Y-32890D01*
X63562Y-33039D01*
X63949Y-33039D01*
X64307Y-32891D01*
X64581Y-32617D01*
X64730Y-32259D01*
X64730Y-34691D01*
X64649Y-34725D01*
X64475Y-34899D01*
X64381Y-35127D01*
X64381Y-35373D01*
X64475Y-35601D01*
X64649Y-35775D01*
X64877Y-35869D01*
X65123Y-35869D01*
X65351Y-35775D01*
X65525Y-35601D01*
X65619Y-35373D01*
X65619Y-38127D01*
X65525Y-37899D01*
X65351Y-37725D01*
X65123Y-37631D01*
X64877Y-37631D01*
X64649Y-37725D01*
X64475Y-37899D01*
X64381Y-38127D01*
X64381Y-38373D01*
X64475Y-38601D01*
X64649Y-38775D01*
X64877Y-38869D01*
X65123Y-38869D01*
X65351Y-38775D01*
X65525Y-38601D01*
X65619Y-38373D01*
X65619Y-50127D01*
X65525Y-49899D01*
X65351Y-49725D01*
X65123Y-49631D01*
X64877Y-49631D01*
X64730Y-49691D01*
X64730Y-47259D01*
X64730Y-46872D01*
X64730Y-41629D01*
X64730Y-41242D01*
X64582Y-40884D01*
X64308Y-40610D01*
X63950Y-40461D01*
X63563Y-40461D01*
X63205Y-40609D01*
X62931Y-40883D01*
X62782Y-41241D01*
X62782Y-41628D01*
X62930Y-41986D01*
X63204Y-42260D01*
X63562Y-42409D01*
X63949Y-42409D01*
X64307Y-42261D01*
X64581Y-41987D01*
X64730Y-41629D01*
X64730Y-46872D01*
X64582Y-46514D01*
X64308Y-46240D01*
X64046Y-46130D01*
X64046Y-44361D01*
X64046Y-43880D01*
X63863Y-43438D01*
X63700Y-43330D01*
X63629Y-43401D01*
X63629Y-43259D01*
X63521Y-43096D01*
X63076Y-42913D01*
X62595Y-42913D01*
X62153Y-43096D01*
X62045Y-43259D01*
X62837Y-44051D01*
X63629Y-43259D01*
X63629Y-43401D01*
X62908Y-44122D01*
X63700Y-44914D01*
X63863Y-44806D01*
X64046Y-44361D01*
X64046Y-46130D01*
X63950Y-46091D01*
X63629Y-46091D01*
X63629Y-44985D01*
X62837Y-44193D01*
X62766Y-44264D01*
X62766Y-44122D01*
X62021Y-43377D01*
X62021Y-40604D01*
X62021Y-40397D01*
X62021Y-33104D01*
X62021Y-32897D01*
X62021Y-25604D01*
X62021Y-25397D01*
X61942Y-25205D01*
X61796Y-25059D01*
X61604Y-24979D01*
X61397Y-24979D01*
X61205Y-25058D01*
X61173Y-25090D01*
X61173Y-23610D01*
X61165Y-23344D01*
X61080Y-23141D01*
X60972Y-23099D01*
X60901Y-23170D01*
X60901Y-23028D01*
X60859Y-22920D01*
X60610Y-22827D01*
X60344Y-22835D01*
X60141Y-22920D01*
X60099Y-23028D01*
X60500Y-23429D01*
X60901Y-23028D01*
X60901Y-23170D01*
X60571Y-23500D01*
X60972Y-23901D01*
X61080Y-23859D01*
X61173Y-23610D01*
X61173Y-25090D01*
X61059Y-25204D01*
X60979Y-25396D01*
X60979Y-25603D01*
X61058Y-25795D01*
X61204Y-25941D01*
X61396Y-26021D01*
X61603Y-26021D01*
X61795Y-25942D01*
X61941Y-25796D01*
X62021Y-25604D01*
X62021Y-32897D01*
X61942Y-32705D01*
X61796Y-32559D01*
X61619Y-32485D01*
X61619Y-27623D01*
X61619Y-27377D01*
X61525Y-27149D01*
X61351Y-26975D01*
X61123Y-26881D01*
X60901Y-26881D01*
X60901Y-23972D01*
X60500Y-23571D01*
X60429Y-23642D01*
X60429Y-23500D01*
X60028Y-23099D01*
X59920Y-23141D01*
X59827Y-23390D01*
X59835Y-23656D01*
X59920Y-23859D01*
X60028Y-23901D01*
X60429Y-23500D01*
X60429Y-23642D01*
X60099Y-23972D01*
X60141Y-24080D01*
X60390Y-24173D01*
X60656Y-24165D01*
X60859Y-24080D01*
X60901Y-23972D01*
X60901Y-26881D01*
X60877Y-26881D01*
X60649Y-26975D01*
X60475Y-27149D01*
X60474Y-27151D01*
X60474Y-25694D01*
X60474Y-25307D01*
X60326Y-24949D01*
X60052Y-24675D01*
X59694Y-24526D01*
X59307Y-24526D01*
X58949Y-24674D01*
X58675Y-24948D01*
X58619Y-25082D01*
X58619Y-24623D01*
X58619Y-24377D01*
X58525Y-24149D01*
X58351Y-23975D01*
X58123Y-23881D01*
X57877Y-23881D01*
X57649Y-23975D01*
X57475Y-24149D01*
X57381Y-24377D01*
X57381Y-24623D01*
X57475Y-24851D01*
X57603Y-24979D01*
X57397Y-24979D01*
X57216Y-25053D01*
X57216Y-24952D01*
X57158Y-24811D01*
X57050Y-24703D01*
X56980Y-24674D01*
X56980Y-22345D01*
X56980Y-22200D01*
X56925Y-22066D01*
X56822Y-21964D01*
X56689Y-21908D01*
X56544Y-21908D01*
X56410Y-21963D01*
X56308Y-22066D01*
X56252Y-22199D01*
X56252Y-22344D01*
X56307Y-22478D01*
X56410Y-22580D01*
X56543Y-22636D01*
X56688Y-22636D01*
X56822Y-22581D01*
X56924Y-22478D01*
X56980Y-22345D01*
X56980Y-24674D01*
X56909Y-24645D01*
X56757Y-24645D01*
X56616Y-24703D01*
X56546Y-24773D01*
X55248Y-24773D01*
X55248Y-22345D01*
X55248Y-22200D01*
X55193Y-22066D01*
X55090Y-21964D01*
X54957Y-21908D01*
X54812Y-21908D01*
X54678Y-21963D01*
X54576Y-22066D01*
X54520Y-22199D01*
X54520Y-22344D01*
X54575Y-22478D01*
X54678Y-22580D01*
X54811Y-22636D01*
X54956Y-22636D01*
X55090Y-22581D01*
X55192Y-22478D01*
X55248Y-22345D01*
X55248Y-24773D01*
X54954Y-24773D01*
X54884Y-24703D01*
X54743Y-24645D01*
X54591Y-24645D01*
X54450Y-24703D01*
X54342Y-24811D01*
X54284Y-24952D01*
X54284Y-25054D01*
X54104Y-24979D01*
X53897Y-24979D01*
X53705Y-25058D01*
X53673Y-25090D01*
X53673Y-23610D01*
X53665Y-23344D01*
X53580Y-23141D01*
X53472Y-23099D01*
X53401Y-23170D01*
X53401Y-23028D01*
X53359Y-22920D01*
X53110Y-22827D01*
X52844Y-22835D01*
X52641Y-22920D01*
X52599Y-23028D01*
X53000Y-23429D01*
X53401Y-23028D01*
X53401Y-23170D01*
X53071Y-23500D01*
X53472Y-23901D01*
X53580Y-23859D01*
X53673Y-23610D01*
X53673Y-25090D01*
X53559Y-25204D01*
X53479Y-25396D01*
X53479Y-25603D01*
X53558Y-25795D01*
X53704Y-25941D01*
X53896Y-26021D01*
X54103Y-26021D01*
X54295Y-25942D01*
X54441Y-25796D01*
X54521Y-25604D01*
X54521Y-25397D01*
X54513Y-25379D01*
X54591Y-25411D01*
X54743Y-25411D01*
X54884Y-25353D01*
X54954Y-25283D01*
X56546Y-25283D01*
X56616Y-25353D01*
X56757Y-25411D01*
X56909Y-25411D01*
X56985Y-25379D01*
X56979Y-25396D01*
X56979Y-25603D01*
X57058Y-25795D01*
X57204Y-25941D01*
X57396Y-26021D01*
X57603Y-26021D01*
X57795Y-25942D01*
X57941Y-25796D01*
X58021Y-25604D01*
X58021Y-25397D01*
X57942Y-25205D01*
X57841Y-25104D01*
X57877Y-25119D01*
X58123Y-25119D01*
X58351Y-25025D01*
X58525Y-24851D01*
X58619Y-24623D01*
X58619Y-25082D01*
X58526Y-25306D01*
X58526Y-25693D01*
X58674Y-26051D01*
X58948Y-26325D01*
X59306Y-26474D01*
X59693Y-26474D01*
X60051Y-26326D01*
X60325Y-26052D01*
X60474Y-25694D01*
X60474Y-27151D01*
X60381Y-27377D01*
X60381Y-27623D01*
X60475Y-27851D01*
X60649Y-28025D01*
X60877Y-28119D01*
X61123Y-28119D01*
X61351Y-28025D01*
X61525Y-27851D01*
X61619Y-27623D01*
X61619Y-32485D01*
X61604Y-32479D01*
X61397Y-32479D01*
X61205Y-32558D01*
X61173Y-32590D01*
X61173Y-31110D01*
X61165Y-30844D01*
X61080Y-30641D01*
X60972Y-30599D01*
X60901Y-30670D01*
X60901Y-30528D01*
X60859Y-30420D01*
X60610Y-30327D01*
X60344Y-30335D01*
X60141Y-30420D01*
X60099Y-30528D01*
X60500Y-30929D01*
X60901Y-30528D01*
X60901Y-30670D01*
X60571Y-31000D01*
X60972Y-31401D01*
X61080Y-31359D01*
X61173Y-31110D01*
X61173Y-32590D01*
X61059Y-32704D01*
X60979Y-32896D01*
X60979Y-33103D01*
X61058Y-33295D01*
X61204Y-33441D01*
X61396Y-33521D01*
X61603Y-33521D01*
X61795Y-33442D01*
X61941Y-33296D01*
X62021Y-33104D01*
X62021Y-40397D01*
X61942Y-40205D01*
X61796Y-40059D01*
X61619Y-39985D01*
X61619Y-35123D01*
X61619Y-34877D01*
X61525Y-34649D01*
X61351Y-34475D01*
X61123Y-34381D01*
X60901Y-34381D01*
X60901Y-31472D01*
X60500Y-31071D01*
X60429Y-31142D01*
X60429Y-31000D01*
X60028Y-30599D01*
X59920Y-30641D01*
X59827Y-30890D01*
X59835Y-31156D01*
X59920Y-31359D01*
X60028Y-31401D01*
X60429Y-31000D01*
X60429Y-31142D01*
X60099Y-31472D01*
X60141Y-31580D01*
X60390Y-31673D01*
X60656Y-31665D01*
X60859Y-31580D01*
X60901Y-31472D01*
X60901Y-34381D01*
X60877Y-34381D01*
X60649Y-34475D01*
X60475Y-34649D01*
X60474Y-34651D01*
X60474Y-33194D01*
X60474Y-32807D01*
X60326Y-32449D01*
X60052Y-32175D01*
X59694Y-32026D01*
X59676Y-32026D01*
X59676Y-29926D01*
X59676Y-29774D01*
X59618Y-29633D01*
X59548Y-29563D01*
X59548Y-28169D01*
X59618Y-28099D01*
X59676Y-27958D01*
X59676Y-27806D01*
X59618Y-27665D01*
X59510Y-27557D01*
X59369Y-27499D01*
X59217Y-27499D01*
X59076Y-27557D01*
X58968Y-27665D01*
X58910Y-27806D01*
X58910Y-27958D01*
X58968Y-28099D01*
X59038Y-28169D01*
X59038Y-29563D01*
X58968Y-29633D01*
X58910Y-29774D01*
X58910Y-29926D01*
X58968Y-30067D01*
X59076Y-30175D01*
X59217Y-30233D01*
X59369Y-30233D01*
X59510Y-30175D01*
X59618Y-30067D01*
X59676Y-29926D01*
X59676Y-32026D01*
X59307Y-32026D01*
X58949Y-32174D01*
X58675Y-32448D01*
X58619Y-32582D01*
X58619Y-32123D01*
X58619Y-31877D01*
X58619Y-27623D01*
X58619Y-27377D01*
X58525Y-27149D01*
X58351Y-26975D01*
X58123Y-26881D01*
X57877Y-26881D01*
X57649Y-26975D01*
X57475Y-27149D01*
X57381Y-27377D01*
X57381Y-27623D01*
X57475Y-27851D01*
X57649Y-28025D01*
X57877Y-28119D01*
X58123Y-28119D01*
X58351Y-28025D01*
X58525Y-27851D01*
X58619Y-27623D01*
X58619Y-31877D01*
X58525Y-31649D01*
X58351Y-31475D01*
X58123Y-31381D01*
X57877Y-31381D01*
X57649Y-31475D01*
X57475Y-31649D01*
X57381Y-31877D01*
X57381Y-32123D01*
X57475Y-32351D01*
X57603Y-32479D01*
X57397Y-32479D01*
X57205Y-32558D01*
X57059Y-32704D01*
X56979Y-32896D01*
X56979Y-33103D01*
X57058Y-33295D01*
X57204Y-33441D01*
X57396Y-33521D01*
X57603Y-33521D01*
X57795Y-33442D01*
X57941Y-33296D01*
X58021Y-33104D01*
X58021Y-32897D01*
X57942Y-32705D01*
X57841Y-32604D01*
X57877Y-32619D01*
X58123Y-32619D01*
X58351Y-32525D01*
X58525Y-32351D01*
X58619Y-32123D01*
X58619Y-32582D01*
X58526Y-32806D01*
X58526Y-33193D01*
X58674Y-33551D01*
X58948Y-33825D01*
X59306Y-33974D01*
X59693Y-33974D01*
X60051Y-33826D01*
X60325Y-33552D01*
X60474Y-33194D01*
X60474Y-34651D01*
X60381Y-34877D01*
X60381Y-35123D01*
X60475Y-35351D01*
X60649Y-35525D01*
X60877Y-35619D01*
X61123Y-35619D01*
X61351Y-35525D01*
X61525Y-35351D01*
X61619Y-35123D01*
X61619Y-39985D01*
X61604Y-39979D01*
X61397Y-39979D01*
X61205Y-40058D01*
X61173Y-40090D01*
X61173Y-38610D01*
X61165Y-38344D01*
X61080Y-38141D01*
X60972Y-38099D01*
X60901Y-38170D01*
X60901Y-38028D01*
X60859Y-37920D01*
X60610Y-37827D01*
X60344Y-37835D01*
X60141Y-37920D01*
X60099Y-38028D01*
X60500Y-38429D01*
X60901Y-38028D01*
X60901Y-38170D01*
X60571Y-38500D01*
X60972Y-38901D01*
X61080Y-38859D01*
X61173Y-38610D01*
X61173Y-40090D01*
X61059Y-40204D01*
X60979Y-40396D01*
X60979Y-40603D01*
X61058Y-40795D01*
X61204Y-40941D01*
X61396Y-41021D01*
X61603Y-41021D01*
X61795Y-40942D01*
X61941Y-40796D01*
X62021Y-40604D01*
X62021Y-43377D01*
X61974Y-43330D01*
X61811Y-43438D01*
X61628Y-43883D01*
X61628Y-44364D01*
X61811Y-44806D01*
X61974Y-44914D01*
X62766Y-44122D01*
X62766Y-44264D01*
X62045Y-44985D01*
X62153Y-45148D01*
X62598Y-45331D01*
X63079Y-45331D01*
X63521Y-45148D01*
X63629Y-44985D01*
X63629Y-46091D01*
X63563Y-46091D01*
X63205Y-46239D01*
X62931Y-46513D01*
X62782Y-46871D01*
X62782Y-47258D01*
X62930Y-47616D01*
X63204Y-47890D01*
X63562Y-48039D01*
X63949Y-48039D01*
X64307Y-47891D01*
X64581Y-47617D01*
X64730Y-47259D01*
X64730Y-49691D01*
X64649Y-49725D01*
X64475Y-49899D01*
X64381Y-50127D01*
X64381Y-50373D01*
X64475Y-50601D01*
X64649Y-50775D01*
X64877Y-50869D01*
X65123Y-50869D01*
X65351Y-50775D01*
X65525Y-50601D01*
X65619Y-50373D01*
X65619Y-53127D01*
X65525Y-52899D01*
X65351Y-52725D01*
X65123Y-52631D01*
X64877Y-52631D01*
X64649Y-52725D01*
X64475Y-52899D01*
X64381Y-53127D01*
X64381Y-53373D01*
X64475Y-53601D01*
X64649Y-53775D01*
X64877Y-53869D01*
X65123Y-53869D01*
X65351Y-53775D01*
X65525Y-53601D01*
X65619Y-53373D01*
X65619Y-59608D01*
X64730Y-59608D01*
X64730Y-56629D01*
X64730Y-56242D01*
X64582Y-55884D01*
X64308Y-55610D01*
X63950Y-55461D01*
X63563Y-55461D01*
X63205Y-55609D01*
X62931Y-55883D01*
X62782Y-56241D01*
X62782Y-56628D01*
X62930Y-56986D01*
X63204Y-57260D01*
X63562Y-57409D01*
X63949Y-57409D01*
X64307Y-57261D01*
X64581Y-56987D01*
X64730Y-56629D01*
X64730Y-59608D01*
X62021Y-59608D01*
X62021Y-55604D01*
X62021Y-55397D01*
X62021Y-48104D01*
X62021Y-47897D01*
X61942Y-47705D01*
X61796Y-47559D01*
X61619Y-47485D01*
X61619Y-42623D01*
X61619Y-42377D01*
X61525Y-42149D01*
X61351Y-41975D01*
X61123Y-41881D01*
X60901Y-41881D01*
X60901Y-38972D01*
X60500Y-38571D01*
X60429Y-38642D01*
X60429Y-38500D01*
X60028Y-38099D01*
X59920Y-38141D01*
X59827Y-38390D01*
X59835Y-38656D01*
X59920Y-38859D01*
X60028Y-38901D01*
X60429Y-38500D01*
X60429Y-38642D01*
X60099Y-38972D01*
X60141Y-39080D01*
X60390Y-39173D01*
X60656Y-39165D01*
X60859Y-39080D01*
X60901Y-38972D01*
X60901Y-41881D01*
X60877Y-41881D01*
X60649Y-41975D01*
X60475Y-42149D01*
X60474Y-42151D01*
X60474Y-40694D01*
X60474Y-40307D01*
X60326Y-39949D01*
X60052Y-39675D01*
X59694Y-39526D01*
X59307Y-39526D01*
X58949Y-39674D01*
X58675Y-39948D01*
X58619Y-40082D01*
X58619Y-39623D01*
X58619Y-39377D01*
X58619Y-35123D01*
X58619Y-34877D01*
X58525Y-34649D01*
X58351Y-34475D01*
X58123Y-34381D01*
X57877Y-34381D01*
X57649Y-34475D01*
X57475Y-34649D01*
X57381Y-34877D01*
X57381Y-35123D01*
X57475Y-35351D01*
X57649Y-35525D01*
X57877Y-35619D01*
X58123Y-35619D01*
X58351Y-35525D01*
X58525Y-35351D01*
X58619Y-35123D01*
X58619Y-39377D01*
X58525Y-39149D01*
X58351Y-38975D01*
X58123Y-38881D01*
X57877Y-38881D01*
X57649Y-38975D01*
X57475Y-39149D01*
X57381Y-39377D01*
X57381Y-39623D01*
X57475Y-39851D01*
X57603Y-39979D01*
X57397Y-39979D01*
X57205Y-40058D01*
X57059Y-40204D01*
X56979Y-40396D01*
X56979Y-40603D01*
X57058Y-40795D01*
X57204Y-40941D01*
X57396Y-41021D01*
X57603Y-41021D01*
X57795Y-40942D01*
X57941Y-40796D01*
X58021Y-40604D01*
X58021Y-40397D01*
X57942Y-40205D01*
X57841Y-40104D01*
X57877Y-40119D01*
X58123Y-40119D01*
X58351Y-40025D01*
X58525Y-39851D01*
X58619Y-39623D01*
X58619Y-40082D01*
X58526Y-40306D01*
X58526Y-40693D01*
X58674Y-41051D01*
X58948Y-41325D01*
X59306Y-41474D01*
X59693Y-41474D01*
X60051Y-41326D01*
X60325Y-41052D01*
X60474Y-40694D01*
X60474Y-42151D01*
X60381Y-42377D01*
X60381Y-42623D01*
X60475Y-42851D01*
X60649Y-43025D01*
X60877Y-43119D01*
X61123Y-43119D01*
X61351Y-43025D01*
X61525Y-42851D01*
X61619Y-42623D01*
X61619Y-47485D01*
X61604Y-47479D01*
X61397Y-47479D01*
X61205Y-47558D01*
X61173Y-47590D01*
X61173Y-46110D01*
X61165Y-45844D01*
X61080Y-45641D01*
X60972Y-45599D01*
X60901Y-45670D01*
X60901Y-45528D01*
X60859Y-45420D01*
X60610Y-45327D01*
X60344Y-45335D01*
X60141Y-45420D01*
X60099Y-45528D01*
X60500Y-45929D01*
X60901Y-45528D01*
X60901Y-45670D01*
X60571Y-46000D01*
X60972Y-46401D01*
X61080Y-46359D01*
X61173Y-46110D01*
X61173Y-47590D01*
X61059Y-47704D01*
X60979Y-47896D01*
X60979Y-48103D01*
X61058Y-48295D01*
X61204Y-48441D01*
X61396Y-48521D01*
X61603Y-48521D01*
X61795Y-48442D01*
X61941Y-48296D01*
X62021Y-48104D01*
X62021Y-55397D01*
X61942Y-55205D01*
X61796Y-55059D01*
X61619Y-54985D01*
X61619Y-50123D01*
X61619Y-49877D01*
X61525Y-49649D01*
X61351Y-49475D01*
X61123Y-49381D01*
X60901Y-49381D01*
X60901Y-46472D01*
X60500Y-46071D01*
X60429Y-46142D01*
X60429Y-46000D01*
X60028Y-45599D01*
X59920Y-45641D01*
X59827Y-45890D01*
X59835Y-46156D01*
X59920Y-46359D01*
X60028Y-46401D01*
X60429Y-46000D01*
X60429Y-46142D01*
X60099Y-46472D01*
X60141Y-46580D01*
X60390Y-46673D01*
X60656Y-46665D01*
X60859Y-46580D01*
X60901Y-46472D01*
X60901Y-49381D01*
X60877Y-49381D01*
X60649Y-49475D01*
X60475Y-49649D01*
X60474Y-49651D01*
X60474Y-48194D01*
X60474Y-47807D01*
X60326Y-47449D01*
X60052Y-47175D01*
X59694Y-47026D01*
X59307Y-47026D01*
X58949Y-47174D01*
X58675Y-47448D01*
X58619Y-47582D01*
X58619Y-47123D01*
X58619Y-46877D01*
X58619Y-42623D01*
X58619Y-42377D01*
X58525Y-42149D01*
X58351Y-41975D01*
X58123Y-41881D01*
X57877Y-41881D01*
X57649Y-41975D01*
X57475Y-42149D01*
X57381Y-42377D01*
X57381Y-42623D01*
X57475Y-42851D01*
X57649Y-43025D01*
X57877Y-43119D01*
X58123Y-43119D01*
X58351Y-43025D01*
X58525Y-42851D01*
X58619Y-42623D01*
X58619Y-46877D01*
X58525Y-46649D01*
X58351Y-46475D01*
X58123Y-46381D01*
X57877Y-46381D01*
X57649Y-46475D01*
X57475Y-46649D01*
X57381Y-46877D01*
X57381Y-47123D01*
X57475Y-47351D01*
X57603Y-47479D01*
X57397Y-47479D01*
X57205Y-47558D01*
X57059Y-47704D01*
X56979Y-47896D01*
X56979Y-48103D01*
X57058Y-48295D01*
X57204Y-48441D01*
X57396Y-48521D01*
X57603Y-48521D01*
X57795Y-48442D01*
X57941Y-48296D01*
X58021Y-48104D01*
X58021Y-47897D01*
X57942Y-47705D01*
X57841Y-47604D01*
X57877Y-47619D01*
X58123Y-47619D01*
X58351Y-47525D01*
X58525Y-47351D01*
X58619Y-47123D01*
X58619Y-47582D01*
X58526Y-47806D01*
X58526Y-48193D01*
X58674Y-48551D01*
X58948Y-48825D01*
X59306Y-48974D01*
X59693Y-48974D01*
X60051Y-48826D01*
X60325Y-48552D01*
X60474Y-48194D01*
X60474Y-49651D01*
X60381Y-49877D01*
X60381Y-50123D01*
X60475Y-50351D01*
X60649Y-50525D01*
X60877Y-50619D01*
X61123Y-50619D01*
X61351Y-50525D01*
X61525Y-50351D01*
X61619Y-50123D01*
X61619Y-54985D01*
X61604Y-54979D01*
X61397Y-54979D01*
X61205Y-55058D01*
X61173Y-55090D01*
X61173Y-53610D01*
X61165Y-53344D01*
X61080Y-53141D01*
X60972Y-53099D01*
X60901Y-53170D01*
X60901Y-53028D01*
X60859Y-52920D01*
X60610Y-52827D01*
X60344Y-52835D01*
X60141Y-52920D01*
X60099Y-53028D01*
X60500Y-53429D01*
X60901Y-53028D01*
X60901Y-53170D01*
X60571Y-53500D01*
X60972Y-53901D01*
X61080Y-53859D01*
X61173Y-53610D01*
X61173Y-55090D01*
X61059Y-55204D01*
X60979Y-55396D01*
X60979Y-55603D01*
X61058Y-55795D01*
X61204Y-55941D01*
X61396Y-56021D01*
X61603Y-56021D01*
X61795Y-55942D01*
X61941Y-55796D01*
X62021Y-55604D01*
X62021Y-59608D01*
X61619Y-59608D01*
X61619Y-57623D01*
X61619Y-57377D01*
X61525Y-57149D01*
X61351Y-56975D01*
X61123Y-56881D01*
X60901Y-56881D01*
X60901Y-53972D01*
X60500Y-53571D01*
X60429Y-53642D01*
X60429Y-53500D01*
X60028Y-53099D01*
X59920Y-53141D01*
X59827Y-53390D01*
X59835Y-53656D01*
X59920Y-53859D01*
X60028Y-53901D01*
X60429Y-53500D01*
X60429Y-53642D01*
X60099Y-53972D01*
X60141Y-54080D01*
X60390Y-54173D01*
X60656Y-54165D01*
X60859Y-54080D01*
X60901Y-53972D01*
X60901Y-56881D01*
X60877Y-56881D01*
X60649Y-56975D01*
X60475Y-57149D01*
X60474Y-57151D01*
X60474Y-55694D01*
X60474Y-55307D01*
X60326Y-54949D01*
X60052Y-54675D01*
X59694Y-54526D01*
X59307Y-54526D01*
X58949Y-54674D01*
X58675Y-54948D01*
X58619Y-55082D01*
X58619Y-54623D01*
X58619Y-54377D01*
X58619Y-50123D01*
X58619Y-49877D01*
X58525Y-49649D01*
X58351Y-49475D01*
X58123Y-49381D01*
X57877Y-49381D01*
X57649Y-49475D01*
X57475Y-49649D01*
X57381Y-49877D01*
X57381Y-50123D01*
X57475Y-50351D01*
X57649Y-50525D01*
X57877Y-50619D01*
X58123Y-50619D01*
X58351Y-50525D01*
X58525Y-50351D01*
X58619Y-50123D01*
X58619Y-54377D01*
X58525Y-54149D01*
X58351Y-53975D01*
X58123Y-53881D01*
X57877Y-53881D01*
X57649Y-53975D01*
X57475Y-54149D01*
X57381Y-54377D01*
X57381Y-54623D01*
X57475Y-54851D01*
X57603Y-54979D01*
X57397Y-54979D01*
X57205Y-55058D01*
X57059Y-55204D01*
X56979Y-55396D01*
X56979Y-55603D01*
X57058Y-55795D01*
X57204Y-55941D01*
X57396Y-56021D01*
X57603Y-56021D01*
X57795Y-55942D01*
X57941Y-55796D01*
X58021Y-55604D01*
X58021Y-55397D01*
X57942Y-55205D01*
X57841Y-55104D01*
X57877Y-55119D01*
X58123Y-55119D01*
X58351Y-55025D01*
X58525Y-54851D01*
X58619Y-54623D01*
X58619Y-55082D01*
X58526Y-55306D01*
X58526Y-55693D01*
X58674Y-56051D01*
X58948Y-56325D01*
X59306Y-56474D01*
X59693Y-56474D01*
X60051Y-56326D01*
X60325Y-56052D01*
X60474Y-55694D01*
X60474Y-57151D01*
X60381Y-57377D01*
X60381Y-57623D01*
X60475Y-57851D01*
X60649Y-58025D01*
X60877Y-58119D01*
X61123Y-58119D01*
X61351Y-58025D01*
X61525Y-57851D01*
X61619Y-57623D01*
X61619Y-59608D01*
X58619Y-59608D01*
X58619Y-57623D01*
X58619Y-57377D01*
X58525Y-57149D01*
X58351Y-56975D01*
X58123Y-56881D01*
X57877Y-56881D01*
X57649Y-56975D01*
X57475Y-57149D01*
X57381Y-57377D01*
X57381Y-57623D01*
X57475Y-57851D01*
X57649Y-58025D01*
X57877Y-58119D01*
X58123Y-58119D01*
X58351Y-58025D01*
X58525Y-57851D01*
X58619Y-57623D01*
X58619Y-59608D01*
X56920Y-59608D01*
X56920Y-25891D01*
X56920Y-25739D01*
X56862Y-25598D01*
X56754Y-25490D01*
X56613Y-25432D01*
X56461Y-25432D01*
X56320Y-25490D01*
X56250Y-25560D01*
X56037Y-25560D01*
X55967Y-25490D01*
X55826Y-25432D01*
X55674Y-25432D01*
X55533Y-25490D01*
X55425Y-25598D01*
X55367Y-25739D01*
X55367Y-25891D01*
X55425Y-26032D01*
X55533Y-26140D01*
X55674Y-26198D01*
X55826Y-26198D01*
X55967Y-26140D01*
X56037Y-26070D01*
X56250Y-26070D01*
X56320Y-26140D01*
X56461Y-26198D01*
X56613Y-26198D01*
X56754Y-26140D01*
X56862Y-26032D01*
X56920Y-25891D01*
X56920Y-59608D01*
X54521Y-59608D01*
X54521Y-48104D01*
X54521Y-47897D01*
X54521Y-40604D01*
X54521Y-40397D01*
X54521Y-33104D01*
X54521Y-32897D01*
X54442Y-32705D01*
X54296Y-32559D01*
X54119Y-32485D01*
X54119Y-27623D01*
X54119Y-27377D01*
X54025Y-27149D01*
X53851Y-26975D01*
X53623Y-26881D01*
X53401Y-26881D01*
X53401Y-23972D01*
X53000Y-23571D01*
X52929Y-23642D01*
X52929Y-23500D01*
X52528Y-23099D01*
X52420Y-23141D01*
X52327Y-23390D01*
X52335Y-23656D01*
X52420Y-23859D01*
X52528Y-23901D01*
X52929Y-23500D01*
X52929Y-23642D01*
X52599Y-23972D01*
X52641Y-24080D01*
X52890Y-24173D01*
X53156Y-24165D01*
X53359Y-24080D01*
X53401Y-23972D01*
X53401Y-26881D01*
X53377Y-26881D01*
X53149Y-26975D01*
X52975Y-27149D01*
X52974Y-27151D01*
X52974Y-25694D01*
X52974Y-25307D01*
X52826Y-24949D01*
X52552Y-24675D01*
X52194Y-24526D01*
X51807Y-24526D01*
X51449Y-24674D01*
X51409Y-24714D01*
X51409Y-21954D01*
X51409Y-21802D01*
X51351Y-21661D01*
X51243Y-21553D01*
X51102Y-21495D01*
X50950Y-21495D01*
X50809Y-21553D01*
X50701Y-21661D01*
X50643Y-21802D01*
X50643Y-21900D01*
X49936Y-22607D01*
X49813Y-22607D01*
X49813Y-22260D01*
X49802Y-22047D01*
X49742Y-21900D01*
X49648Y-21873D01*
X49341Y-22181D01*
X49648Y-22489D01*
X49742Y-22462D01*
X49813Y-22260D01*
X49813Y-22607D01*
X49564Y-22607D01*
X49578Y-22559D01*
X49270Y-22252D01*
X48962Y-22559D01*
X48975Y-22607D01*
X48513Y-22607D01*
X48545Y-22594D01*
X48682Y-22457D01*
X48739Y-22319D01*
X48798Y-22462D01*
X48892Y-22489D01*
X49199Y-22181D01*
X48892Y-21873D01*
X48798Y-21900D01*
X48744Y-22053D01*
X48683Y-21906D01*
X48546Y-21769D01*
X48368Y-21694D01*
X48174Y-21694D01*
X47995Y-21768D01*
X47858Y-21905D01*
X47783Y-22083D01*
X47783Y-22277D01*
X47857Y-22456D01*
X47994Y-22593D01*
X48027Y-22607D01*
X47784Y-22607D01*
X47658Y-22480D01*
X47682Y-22457D01*
X47757Y-22279D01*
X47757Y-22085D01*
X47683Y-21906D01*
X47546Y-21769D01*
X47368Y-21694D01*
X47174Y-21694D01*
X46995Y-21768D01*
X46858Y-21905D01*
X46783Y-22083D01*
X46783Y-22277D01*
X46857Y-22456D01*
X46994Y-22593D01*
X47090Y-22633D01*
X47091Y-22634D01*
X47498Y-23042D01*
X47499Y-23042D01*
X47581Y-23098D01*
X47679Y-23117D01*
X50042Y-23117D01*
X50140Y-23098D01*
X50222Y-23042D01*
X51003Y-22261D01*
X51102Y-22261D01*
X51243Y-22203D01*
X51351Y-22095D01*
X51409Y-21954D01*
X51409Y-24714D01*
X51175Y-24948D01*
X51119Y-25082D01*
X51119Y-24623D01*
X51119Y-24377D01*
X51025Y-24149D01*
X50851Y-23975D01*
X50623Y-23881D01*
X50377Y-23881D01*
X50149Y-23975D01*
X49975Y-24149D01*
X49881Y-24377D01*
X49881Y-24623D01*
X49975Y-24851D01*
X50103Y-24979D01*
X49897Y-24979D01*
X49705Y-25058D01*
X49559Y-25204D01*
X49479Y-25396D01*
X49479Y-25603D01*
X49558Y-25795D01*
X49704Y-25941D01*
X49896Y-26021D01*
X50103Y-26021D01*
X50295Y-25942D01*
X50441Y-25796D01*
X50521Y-25604D01*
X50521Y-25397D01*
X50442Y-25205D01*
X50341Y-25104D01*
X50377Y-25119D01*
X50623Y-25119D01*
X50851Y-25025D01*
X51025Y-24851D01*
X51119Y-24623D01*
X51119Y-25082D01*
X51026Y-25306D01*
X51026Y-25693D01*
X51174Y-26051D01*
X51448Y-26325D01*
X51806Y-26474D01*
X52193Y-26474D01*
X52551Y-26326D01*
X52825Y-26052D01*
X52974Y-25694D01*
X52974Y-27151D01*
X52881Y-27377D01*
X52881Y-27623D01*
X52975Y-27851D01*
X53149Y-28025D01*
X53377Y-28119D01*
X53623Y-28119D01*
X53851Y-28025D01*
X54025Y-27851D01*
X54119Y-27623D01*
X54119Y-32485D01*
X54104Y-32479D01*
X53897Y-32479D01*
X53705Y-32558D01*
X53673Y-32590D01*
X53673Y-31110D01*
X53665Y-30844D01*
X53580Y-30641D01*
X53472Y-30599D01*
X53401Y-30670D01*
X53401Y-30528D01*
X53359Y-30420D01*
X53110Y-30327D01*
X52844Y-30335D01*
X52641Y-30420D01*
X52599Y-30528D01*
X53000Y-30929D01*
X53401Y-30528D01*
X53401Y-30670D01*
X53071Y-31000D01*
X53472Y-31401D01*
X53580Y-31359D01*
X53673Y-31110D01*
X53673Y-32590D01*
X53559Y-32704D01*
X53479Y-32896D01*
X53479Y-33103D01*
X53558Y-33295D01*
X53704Y-33441D01*
X53896Y-33521D01*
X54103Y-33521D01*
X54295Y-33442D01*
X54441Y-33296D01*
X54521Y-33104D01*
X54521Y-40397D01*
X54442Y-40205D01*
X54296Y-40059D01*
X54119Y-39985D01*
X54119Y-35123D01*
X54119Y-34877D01*
X54025Y-34649D01*
X53851Y-34475D01*
X53623Y-34381D01*
X53401Y-34381D01*
X53401Y-31472D01*
X53000Y-31071D01*
X52929Y-31142D01*
X52929Y-31000D01*
X52528Y-30599D01*
X52420Y-30641D01*
X52327Y-30890D01*
X52335Y-31156D01*
X52420Y-31359D01*
X52528Y-31401D01*
X52929Y-31000D01*
X52929Y-31142D01*
X52599Y-31472D01*
X52641Y-31580D01*
X52890Y-31673D01*
X53156Y-31665D01*
X53359Y-31580D01*
X53401Y-31472D01*
X53401Y-34381D01*
X53377Y-34381D01*
X53149Y-34475D01*
X52975Y-34649D01*
X52974Y-34651D01*
X52974Y-33194D01*
X52974Y-32807D01*
X52826Y-32449D01*
X52552Y-32175D01*
X52194Y-32026D01*
X51807Y-32026D01*
X51449Y-32174D01*
X51175Y-32448D01*
X51119Y-32582D01*
X51119Y-32123D01*
X51119Y-31877D01*
X51119Y-27623D01*
X51119Y-27377D01*
X51025Y-27149D01*
X50851Y-26975D01*
X50623Y-26881D01*
X50377Y-26881D01*
X50254Y-26931D01*
X50268Y-26918D01*
X50326Y-26777D01*
X50326Y-26625D01*
X50268Y-26484D01*
X50160Y-26376D01*
X50019Y-26318D01*
X49867Y-26318D01*
X49726Y-26376D01*
X49656Y-26446D01*
X47966Y-26446D01*
X47896Y-26376D01*
X47755Y-26318D01*
X47603Y-26318D01*
X47462Y-26376D01*
X47354Y-26484D01*
X47296Y-26625D01*
X47296Y-26777D01*
X47354Y-26918D01*
X47462Y-27026D01*
X47603Y-27084D01*
X47755Y-27084D01*
X47896Y-27026D01*
X47966Y-26956D01*
X49656Y-26956D01*
X49726Y-27026D01*
X49867Y-27084D01*
X50019Y-27084D01*
X50054Y-27069D01*
X49975Y-27149D01*
X49881Y-27377D01*
X49881Y-27623D01*
X49975Y-27851D01*
X50149Y-28025D01*
X50377Y-28119D01*
X50623Y-28119D01*
X50851Y-28025D01*
X51025Y-27851D01*
X51119Y-27623D01*
X51119Y-31877D01*
X51025Y-31649D01*
X50851Y-31475D01*
X50623Y-31381D01*
X50377Y-31381D01*
X50149Y-31475D01*
X49975Y-31649D01*
X49881Y-31877D01*
X49881Y-32123D01*
X49975Y-32351D01*
X50103Y-32479D01*
X49897Y-32479D01*
X49834Y-32504D01*
X49834Y-30714D01*
X49834Y-30562D01*
X49776Y-30421D01*
X49706Y-30351D01*
X49706Y-28563D01*
X49776Y-28493D01*
X49834Y-28352D01*
X49834Y-28200D01*
X49776Y-28059D01*
X49668Y-27951D01*
X49527Y-27893D01*
X49375Y-27893D01*
X49234Y-27951D01*
X49169Y-28016D01*
X49115Y-27962D01*
X48974Y-27904D01*
X48822Y-27904D01*
X48681Y-27962D01*
X48631Y-28011D01*
X48563Y-27943D01*
X48422Y-27885D01*
X48270Y-27885D01*
X48129Y-27943D01*
X48021Y-28051D01*
X47963Y-28192D01*
X47963Y-28344D01*
X48021Y-28485D01*
X48091Y-28555D01*
X48091Y-30382D01*
X48021Y-30452D01*
X47963Y-30593D01*
X47963Y-30745D01*
X48021Y-30886D01*
X48129Y-30994D01*
X48270Y-31052D01*
X48422Y-31052D01*
X48563Y-30994D01*
X48651Y-30906D01*
X48700Y-30955D01*
X48841Y-31013D01*
X48993Y-31013D01*
X49134Y-30955D01*
X49180Y-30909D01*
X49234Y-30963D01*
X49375Y-31021D01*
X49527Y-31021D01*
X49668Y-30963D01*
X49776Y-30855D01*
X49834Y-30714D01*
X49834Y-32504D01*
X49705Y-32558D01*
X49559Y-32704D01*
X49479Y-32896D01*
X49479Y-33103D01*
X49558Y-33295D01*
X49704Y-33441D01*
X49896Y-33521D01*
X50103Y-33521D01*
X50295Y-33442D01*
X50441Y-33296D01*
X50521Y-33104D01*
X50521Y-32897D01*
X50442Y-32705D01*
X50341Y-32604D01*
X50377Y-32619D01*
X50623Y-32619D01*
X50851Y-32525D01*
X51025Y-32351D01*
X51119Y-32123D01*
X51119Y-32582D01*
X51026Y-32806D01*
X51026Y-33193D01*
X51174Y-33551D01*
X51448Y-33825D01*
X51806Y-33974D01*
X52193Y-33974D01*
X52551Y-33826D01*
X52825Y-33552D01*
X52974Y-33194D01*
X52974Y-34651D01*
X52881Y-34877D01*
X52881Y-35123D01*
X52975Y-35351D01*
X53149Y-35525D01*
X53377Y-35619D01*
X53623Y-35619D01*
X53851Y-35525D01*
X54025Y-35351D01*
X54119Y-35123D01*
X54119Y-39985D01*
X54104Y-39979D01*
X53897Y-39979D01*
X53705Y-40058D01*
X53673Y-40090D01*
X53673Y-38610D01*
X53665Y-38344D01*
X53580Y-38141D01*
X53472Y-38099D01*
X53401Y-38170D01*
X53401Y-38028D01*
X53359Y-37920D01*
X53110Y-37827D01*
X52844Y-37835D01*
X52641Y-37920D01*
X52599Y-38028D01*
X53000Y-38429D01*
X53401Y-38028D01*
X53401Y-38170D01*
X53071Y-38500D01*
X53472Y-38901D01*
X53580Y-38859D01*
X53673Y-38610D01*
X53673Y-40090D01*
X53559Y-40204D01*
X53479Y-40396D01*
X53479Y-40603D01*
X53558Y-40795D01*
X53704Y-40941D01*
X53896Y-41021D01*
X54103Y-41021D01*
X54295Y-40942D01*
X54441Y-40796D01*
X54521Y-40604D01*
X54521Y-47897D01*
X54442Y-47705D01*
X54296Y-47559D01*
X54119Y-47485D01*
X54119Y-42623D01*
X54119Y-42377D01*
X54025Y-42149D01*
X53851Y-41975D01*
X53623Y-41881D01*
X53401Y-41881D01*
X53401Y-38972D01*
X53000Y-38571D01*
X52929Y-38642D01*
X52929Y-38500D01*
X52528Y-38099D01*
X52420Y-38141D01*
X52327Y-38390D01*
X52335Y-38656D01*
X52420Y-38859D01*
X52528Y-38901D01*
X52929Y-38500D01*
X52929Y-38642D01*
X52599Y-38972D01*
X52641Y-39080D01*
X52890Y-39173D01*
X53156Y-39165D01*
X53359Y-39080D01*
X53401Y-38972D01*
X53401Y-41881D01*
X53377Y-41881D01*
X53149Y-41975D01*
X52975Y-42149D01*
X52974Y-42151D01*
X52974Y-40694D01*
X52974Y-40307D01*
X52826Y-39949D01*
X52552Y-39675D01*
X52194Y-39526D01*
X51807Y-39526D01*
X51449Y-39674D01*
X51175Y-39948D01*
X51119Y-40082D01*
X51119Y-39623D01*
X51119Y-39377D01*
X51119Y-35123D01*
X51119Y-34877D01*
X51025Y-34649D01*
X50851Y-34475D01*
X50623Y-34381D01*
X50377Y-34381D01*
X50149Y-34475D01*
X49975Y-34649D01*
X49881Y-34877D01*
X49881Y-35123D01*
X49975Y-35351D01*
X50149Y-35525D01*
X50377Y-35619D01*
X50623Y-35619D01*
X50851Y-35525D01*
X51025Y-35351D01*
X51119Y-35123D01*
X51119Y-39377D01*
X51025Y-39149D01*
X50851Y-38975D01*
X50623Y-38881D01*
X50377Y-38881D01*
X50149Y-38975D01*
X49975Y-39149D01*
X49881Y-39377D01*
X49881Y-39623D01*
X49975Y-39851D01*
X50103Y-39979D01*
X49897Y-39979D01*
X49705Y-40058D01*
X49559Y-40204D01*
X49479Y-40396D01*
X49479Y-40603D01*
X49558Y-40795D01*
X49704Y-40941D01*
X49896Y-41021D01*
X50103Y-41021D01*
X50295Y-40942D01*
X50441Y-40796D01*
X50521Y-40604D01*
X50521Y-40397D01*
X50442Y-40205D01*
X50341Y-40104D01*
X50377Y-40119D01*
X50623Y-40119D01*
X50851Y-40025D01*
X51025Y-39851D01*
X51119Y-39623D01*
X51119Y-40082D01*
X51026Y-40306D01*
X51026Y-40693D01*
X51174Y-41051D01*
X51448Y-41325D01*
X51806Y-41474D01*
X52193Y-41474D01*
X52551Y-41326D01*
X52825Y-41052D01*
X52974Y-40694D01*
X52974Y-42151D01*
X52881Y-42377D01*
X52881Y-42623D01*
X52975Y-42851D01*
X53149Y-43025D01*
X53377Y-43119D01*
X53623Y-43119D01*
X53851Y-43025D01*
X54025Y-42851D01*
X54119Y-42623D01*
X54119Y-47485D01*
X54104Y-47479D01*
X53897Y-47479D01*
X53705Y-47558D01*
X53673Y-47590D01*
X53673Y-46110D01*
X53665Y-45844D01*
X53580Y-45641D01*
X53472Y-45599D01*
X53401Y-45670D01*
X53401Y-45528D01*
X53359Y-45420D01*
X53110Y-45327D01*
X52844Y-45335D01*
X52641Y-45420D01*
X52599Y-45528D01*
X53000Y-45929D01*
X53401Y-45528D01*
X53401Y-45670D01*
X53071Y-46000D01*
X53472Y-46401D01*
X53580Y-46359D01*
X53673Y-46110D01*
X53673Y-47590D01*
X53559Y-47704D01*
X53479Y-47896D01*
X53479Y-48103D01*
X53558Y-48295D01*
X53704Y-48441D01*
X53896Y-48521D01*
X54103Y-48521D01*
X54295Y-48442D01*
X54441Y-48296D01*
X54521Y-48104D01*
X54521Y-59608D01*
X53644Y-59608D01*
X53736Y-59570D01*
X54010Y-59296D01*
X54159Y-58938D01*
X54159Y-58551D01*
X54119Y-58454D01*
X54119Y-50123D01*
X54119Y-49877D01*
X54025Y-49649D01*
X53851Y-49475D01*
X53623Y-49381D01*
X53401Y-49381D01*
X53401Y-46472D01*
X53000Y-46071D01*
X52929Y-46142D01*
X52929Y-46000D01*
X52528Y-45599D01*
X52420Y-45641D01*
X52327Y-45890D01*
X52335Y-46156D01*
X52420Y-46359D01*
X52528Y-46401D01*
X52929Y-46000D01*
X52929Y-46142D01*
X52599Y-46472D01*
X52641Y-46580D01*
X52890Y-46673D01*
X53156Y-46665D01*
X53359Y-46580D01*
X53401Y-46472D01*
X53401Y-49381D01*
X53377Y-49381D01*
X53149Y-49475D01*
X52975Y-49649D01*
X52974Y-49651D01*
X52974Y-48194D01*
X52974Y-47807D01*
X52826Y-47449D01*
X52552Y-47175D01*
X52194Y-47026D01*
X51807Y-47026D01*
X51449Y-47174D01*
X51175Y-47448D01*
X51119Y-47582D01*
X51119Y-47123D01*
X51119Y-46877D01*
X51119Y-42623D01*
X51119Y-42377D01*
X51025Y-42149D01*
X50851Y-41975D01*
X50623Y-41881D01*
X50377Y-41881D01*
X50149Y-41975D01*
X49975Y-42149D01*
X49881Y-42377D01*
X49881Y-42623D01*
X49975Y-42851D01*
X50149Y-43025D01*
X50377Y-43119D01*
X50623Y-43119D01*
X50851Y-43025D01*
X51025Y-42851D01*
X51119Y-42623D01*
X51119Y-46877D01*
X51025Y-46649D01*
X50851Y-46475D01*
X50623Y-46381D01*
X50377Y-46381D01*
X50149Y-46475D01*
X49975Y-46649D01*
X49881Y-46877D01*
X49881Y-47123D01*
X49975Y-47351D01*
X50103Y-47479D01*
X49897Y-47479D01*
X49705Y-47558D01*
X49559Y-47704D01*
X49479Y-47896D01*
X49479Y-44361D01*
X49479Y-43880D01*
X49296Y-43438D01*
X49133Y-43330D01*
X49062Y-43401D01*
X49062Y-43259D01*
X48954Y-43096D01*
X48509Y-42913D01*
X48028Y-42913D01*
X47586Y-43096D01*
X47478Y-43259D01*
X48270Y-44051D01*
X49062Y-43259D01*
X49062Y-43401D01*
X48341Y-44122D01*
X49133Y-44914D01*
X49296Y-44806D01*
X49479Y-44361D01*
X49479Y-47896D01*
X49479Y-48103D01*
X49558Y-48295D01*
X49704Y-48441D01*
X49896Y-48521D01*
X50103Y-48521D01*
X50295Y-48442D01*
X50441Y-48296D01*
X50521Y-48104D01*
X50521Y-47897D01*
X50442Y-47705D01*
X50341Y-47604D01*
X50377Y-47619D01*
X50623Y-47619D01*
X50851Y-47525D01*
X51025Y-47351D01*
X51119Y-47123D01*
X51119Y-47582D01*
X51026Y-47806D01*
X51026Y-48193D01*
X51174Y-48551D01*
X51448Y-48825D01*
X51806Y-48974D01*
X52193Y-48974D01*
X52551Y-48826D01*
X52825Y-48552D01*
X52974Y-48194D01*
X52974Y-49651D01*
X52881Y-49877D01*
X52881Y-50123D01*
X52975Y-50351D01*
X53149Y-50525D01*
X53377Y-50619D01*
X53623Y-50619D01*
X53851Y-50525D01*
X54025Y-50351D01*
X54119Y-50123D01*
X54119Y-58454D01*
X54011Y-58193D01*
X53972Y-58154D01*
X53972Y-52902D01*
X53972Y-52589D01*
X53852Y-52300D01*
X53631Y-52078D01*
X53342Y-51958D01*
X53029Y-51958D01*
X52740Y-52078D01*
X52518Y-52299D01*
X52398Y-52588D01*
X52398Y-52901D01*
X52518Y-53190D01*
X52739Y-53412D01*
X53028Y-53532D01*
X53341Y-53532D01*
X53630Y-53412D01*
X53852Y-53191D01*
X53972Y-52902D01*
X53972Y-58154D01*
X53737Y-57919D01*
X53379Y-57770D01*
X52992Y-57770D01*
X52634Y-57918D01*
X52360Y-58192D01*
X52211Y-58550D01*
X52211Y-58937D01*
X52359Y-59295D01*
X52633Y-59569D01*
X52726Y-59608D01*
X51119Y-59608D01*
X51119Y-50123D01*
X51119Y-49877D01*
X51025Y-49649D01*
X50851Y-49475D01*
X50623Y-49381D01*
X50377Y-49381D01*
X50149Y-49475D01*
X49975Y-49649D01*
X49881Y-49877D01*
X49881Y-50123D01*
X49975Y-50351D01*
X50149Y-50525D01*
X50377Y-50619D01*
X50623Y-50619D01*
X50851Y-50525D01*
X51025Y-50351D01*
X51119Y-50123D01*
X51119Y-59608D01*
X51021Y-59608D01*
X51021Y-55604D01*
X51021Y-55397D01*
X50942Y-55205D01*
X50796Y-55059D01*
X50604Y-54979D01*
X50397Y-54979D01*
X50205Y-55058D01*
X50173Y-55090D01*
X50173Y-53610D01*
X50165Y-53344D01*
X50080Y-53141D01*
X49972Y-53099D01*
X49901Y-53170D01*
X49901Y-53028D01*
X49859Y-52920D01*
X49610Y-52827D01*
X49344Y-52835D01*
X49141Y-52920D01*
X49099Y-53028D01*
X49500Y-53429D01*
X49901Y-53028D01*
X49901Y-53170D01*
X49571Y-53500D01*
X49972Y-53901D01*
X50080Y-53859D01*
X50173Y-53610D01*
X50173Y-55090D01*
X50059Y-55204D01*
X49979Y-55396D01*
X49979Y-55603D01*
X50058Y-55795D01*
X50204Y-55941D01*
X50396Y-56021D01*
X50603Y-56021D01*
X50795Y-55942D01*
X50941Y-55796D01*
X51021Y-55604D01*
X51021Y-59608D01*
X50619Y-59608D01*
X50619Y-57623D01*
X50619Y-57377D01*
X50525Y-57149D01*
X50351Y-56975D01*
X50123Y-56881D01*
X49901Y-56881D01*
X49901Y-53972D01*
X49500Y-53571D01*
X49429Y-53642D01*
X49429Y-53500D01*
X49062Y-53133D01*
X49062Y-44985D01*
X48270Y-44193D01*
X48199Y-44264D01*
X48199Y-44122D01*
X47407Y-43330D01*
X47244Y-43438D01*
X47061Y-43883D01*
X47061Y-44364D01*
X47244Y-44806D01*
X47407Y-44914D01*
X48199Y-44122D01*
X48199Y-44264D01*
X47478Y-44985D01*
X47586Y-45148D01*
X48031Y-45331D01*
X48512Y-45331D01*
X48954Y-45148D01*
X49062Y-44985D01*
X49062Y-53133D01*
X49028Y-53099D01*
X48920Y-53141D01*
X48827Y-53390D01*
X48835Y-53656D01*
X48920Y-53859D01*
X49028Y-53901D01*
X49429Y-53500D01*
X49429Y-53642D01*
X49099Y-53972D01*
X49141Y-54080D01*
X49390Y-54173D01*
X49656Y-54165D01*
X49859Y-54080D01*
X49901Y-53972D01*
X49901Y-56881D01*
X49877Y-56881D01*
X49649Y-56975D01*
X49475Y-57149D01*
X49381Y-57377D01*
X49381Y-57623D01*
X49475Y-57851D01*
X49649Y-58025D01*
X49877Y-58119D01*
X50123Y-58119D01*
X50351Y-58025D01*
X50525Y-57851D01*
X50619Y-57623D01*
X50619Y-59608D01*
X47619Y-59608D01*
X47619Y-57623D01*
X47619Y-57377D01*
X47619Y-54623D01*
X47619Y-54377D01*
X47525Y-54149D01*
X47351Y-53975D01*
X47123Y-53881D01*
X47021Y-53881D01*
X47021Y-48104D01*
X47021Y-47897D01*
X47021Y-40604D01*
X47021Y-40397D01*
X47021Y-33104D01*
X47021Y-32897D01*
X47021Y-25604D01*
X47021Y-25397D01*
X46942Y-25205D01*
X46796Y-25059D01*
X46604Y-24979D01*
X46397Y-24979D01*
X46205Y-25058D01*
X46173Y-25090D01*
X46173Y-23610D01*
X46165Y-23344D01*
X46080Y-23141D01*
X45972Y-23099D01*
X45901Y-23170D01*
X45901Y-23028D01*
X45859Y-22920D01*
X45610Y-22827D01*
X45517Y-22829D01*
X45517Y-21604D01*
X45517Y-21398D01*
X45439Y-21208D01*
X45293Y-21062D01*
X45104Y-20983D01*
X44898Y-20983D01*
X44708Y-21061D01*
X44562Y-21207D01*
X44529Y-21283D01*
X44496Y-21202D01*
X44400Y-21171D01*
X44329Y-21242D01*
X44329Y-21100D01*
X44298Y-21004D01*
X44086Y-20927D01*
X43861Y-20938D01*
X43702Y-21004D01*
X43671Y-21100D01*
X44000Y-21429D01*
X44329Y-21100D01*
X44329Y-21242D01*
X44071Y-21500D01*
X44400Y-21829D01*
X44496Y-21798D01*
X44527Y-21710D01*
X44561Y-21792D01*
X44707Y-21938D01*
X44896Y-22017D01*
X45102Y-22017D01*
X45292Y-21939D01*
X45438Y-21793D01*
X45517Y-21604D01*
X45517Y-22829D01*
X45344Y-22835D01*
X45141Y-22920D01*
X45099Y-23028D01*
X45500Y-23429D01*
X45901Y-23028D01*
X45901Y-23170D01*
X45571Y-23500D01*
X45972Y-23901D01*
X46080Y-23859D01*
X46173Y-23610D01*
X46173Y-25090D01*
X46059Y-25204D01*
X45979Y-25396D01*
X45979Y-25603D01*
X46058Y-25795D01*
X46204Y-25941D01*
X46396Y-26021D01*
X46603Y-26021D01*
X46795Y-25942D01*
X46941Y-25796D01*
X47021Y-25604D01*
X47021Y-32897D01*
X46942Y-32705D01*
X46796Y-32559D01*
X46619Y-32485D01*
X46619Y-27623D01*
X46619Y-27377D01*
X46525Y-27149D01*
X46351Y-26975D01*
X46123Y-26881D01*
X45901Y-26881D01*
X45901Y-23972D01*
X45500Y-23571D01*
X45429Y-23642D01*
X45429Y-23500D01*
X45028Y-23099D01*
X44920Y-23141D01*
X44827Y-23390D01*
X44835Y-23656D01*
X44920Y-23859D01*
X45028Y-23901D01*
X45429Y-23500D01*
X45429Y-23642D01*
X45099Y-23972D01*
X45141Y-24080D01*
X45390Y-24173D01*
X45656Y-24165D01*
X45859Y-24080D01*
X45901Y-23972D01*
X45901Y-26881D01*
X45877Y-26881D01*
X45649Y-26975D01*
X45475Y-27149D01*
X45474Y-27151D01*
X45474Y-25694D01*
X45474Y-25307D01*
X45326Y-24949D01*
X45052Y-24675D01*
X44694Y-24526D01*
X44329Y-24526D01*
X44329Y-21900D01*
X44000Y-21571D01*
X43929Y-21642D01*
X43929Y-21500D01*
X43600Y-21171D01*
X43504Y-21202D01*
X43427Y-21414D01*
X43438Y-21639D01*
X43504Y-21798D01*
X43600Y-21829D01*
X43929Y-21500D01*
X43929Y-21642D01*
X43671Y-21900D01*
X43702Y-21996D01*
X43914Y-22073D01*
X44139Y-22062D01*
X44298Y-21996D01*
X44329Y-21900D01*
X44329Y-24526D01*
X44307Y-24526D01*
X43949Y-24674D01*
X43675Y-24948D01*
X43619Y-25082D01*
X43619Y-24623D01*
X43619Y-24377D01*
X43525Y-24149D01*
X43351Y-23975D01*
X43123Y-23881D01*
X42877Y-23881D01*
X42786Y-23918D01*
X42786Y-21920D01*
X42786Y-21439D01*
X42603Y-20997D01*
X42440Y-20889D01*
X41648Y-21681D01*
X42440Y-22473D01*
X42603Y-22365D01*
X42786Y-21920D01*
X42786Y-23918D01*
X42649Y-23975D01*
X42475Y-24149D01*
X42381Y-24377D01*
X42381Y-24623D01*
X42475Y-24851D01*
X42603Y-24979D01*
X42397Y-24979D01*
X42369Y-24990D01*
X42369Y-22544D01*
X41577Y-21752D01*
X40785Y-22544D01*
X40893Y-22707D01*
X41338Y-22890D01*
X41819Y-22890D01*
X42261Y-22707D01*
X42369Y-22544D01*
X42369Y-24990D01*
X42205Y-25058D01*
X42059Y-25204D01*
X41979Y-25396D01*
X41979Y-25603D01*
X42058Y-25795D01*
X42204Y-25941D01*
X42396Y-26021D01*
X42603Y-26021D01*
X42795Y-25942D01*
X42941Y-25796D01*
X43021Y-25604D01*
X43021Y-25397D01*
X42942Y-25205D01*
X42841Y-25104D01*
X42877Y-25119D01*
X43123Y-25119D01*
X43351Y-25025D01*
X43525Y-24851D01*
X43619Y-24623D01*
X43619Y-25082D01*
X43526Y-25306D01*
X43526Y-25693D01*
X43674Y-26051D01*
X43948Y-26325D01*
X44306Y-26474D01*
X44693Y-26474D01*
X45051Y-26326D01*
X45325Y-26052D01*
X45474Y-25694D01*
X45474Y-27151D01*
X45381Y-27377D01*
X45381Y-27623D01*
X45475Y-27851D01*
X45649Y-28025D01*
X45877Y-28119D01*
X46123Y-28119D01*
X46351Y-28025D01*
X46525Y-27851D01*
X46619Y-27623D01*
X46619Y-32485D01*
X46604Y-32479D01*
X46397Y-32479D01*
X46205Y-32558D01*
X46173Y-32590D01*
X46173Y-31110D01*
X46165Y-30844D01*
X46080Y-30641D01*
X45972Y-30599D01*
X45901Y-30670D01*
X45901Y-30528D01*
X45859Y-30420D01*
X45610Y-30327D01*
X45344Y-30335D01*
X45141Y-30420D01*
X45099Y-30528D01*
X45500Y-30929D01*
X45901Y-30528D01*
X45901Y-30670D01*
X45571Y-31000D01*
X45972Y-31401D01*
X46080Y-31359D01*
X46173Y-31110D01*
X46173Y-32590D01*
X46059Y-32704D01*
X45979Y-32896D01*
X45979Y-33103D01*
X46058Y-33295D01*
X46204Y-33441D01*
X46396Y-33521D01*
X46603Y-33521D01*
X46795Y-33442D01*
X46941Y-33296D01*
X47021Y-33104D01*
X47021Y-40397D01*
X46942Y-40205D01*
X46796Y-40059D01*
X46619Y-39985D01*
X46619Y-35123D01*
X46619Y-34877D01*
X46525Y-34649D01*
X46351Y-34475D01*
X46123Y-34381D01*
X45901Y-34381D01*
X45901Y-31472D01*
X45500Y-31071D01*
X45429Y-31142D01*
X45429Y-31000D01*
X45028Y-30599D01*
X44920Y-30641D01*
X44827Y-30890D01*
X44835Y-31156D01*
X44920Y-31359D01*
X45028Y-31401D01*
X45429Y-31000D01*
X45429Y-31142D01*
X45099Y-31472D01*
X45141Y-31580D01*
X45390Y-31673D01*
X45656Y-31665D01*
X45859Y-31580D01*
X45901Y-31472D01*
X45901Y-34381D01*
X45877Y-34381D01*
X45649Y-34475D01*
X45475Y-34649D01*
X45474Y-34651D01*
X45474Y-33194D01*
X45474Y-32807D01*
X45326Y-32449D01*
X45052Y-32175D01*
X44694Y-32026D01*
X44307Y-32026D01*
X43949Y-32174D01*
X43675Y-32448D01*
X43619Y-32582D01*
X43619Y-32123D01*
X43619Y-31877D01*
X43619Y-27623D01*
X43619Y-27377D01*
X43525Y-27149D01*
X43351Y-26975D01*
X43123Y-26881D01*
X42877Y-26881D01*
X42649Y-26975D01*
X42475Y-27149D01*
X42381Y-27377D01*
X42381Y-27623D01*
X42475Y-27851D01*
X42649Y-28025D01*
X42877Y-28119D01*
X43123Y-28119D01*
X43351Y-28025D01*
X43525Y-27851D01*
X43619Y-27623D01*
X43619Y-31877D01*
X43525Y-31649D01*
X43351Y-31475D01*
X43123Y-31381D01*
X42877Y-31381D01*
X42649Y-31475D01*
X42475Y-31649D01*
X42381Y-31877D01*
X42381Y-32123D01*
X42475Y-32351D01*
X42603Y-32479D01*
X42397Y-32479D01*
X42205Y-32558D01*
X42059Y-32704D01*
X41979Y-32896D01*
X41979Y-33103D01*
X42058Y-33295D01*
X42204Y-33441D01*
X42396Y-33521D01*
X42603Y-33521D01*
X42795Y-33442D01*
X42941Y-33296D01*
X43021Y-33104D01*
X43021Y-32897D01*
X42942Y-32705D01*
X42841Y-32604D01*
X42877Y-32619D01*
X43123Y-32619D01*
X43351Y-32525D01*
X43525Y-32351D01*
X43619Y-32123D01*
X43619Y-32582D01*
X43526Y-32806D01*
X43526Y-33193D01*
X43674Y-33551D01*
X43948Y-33825D01*
X44306Y-33974D01*
X44693Y-33974D01*
X45051Y-33826D01*
X45325Y-33552D01*
X45474Y-33194D01*
X45474Y-34651D01*
X45381Y-34877D01*
X45381Y-35123D01*
X45475Y-35351D01*
X45649Y-35525D01*
X45877Y-35619D01*
X46123Y-35619D01*
X46351Y-35525D01*
X46525Y-35351D01*
X46619Y-35123D01*
X46619Y-39985D01*
X46604Y-39979D01*
X46397Y-39979D01*
X46205Y-40058D01*
X46173Y-40090D01*
X46173Y-38610D01*
X46165Y-38344D01*
X46080Y-38141D01*
X45972Y-38099D01*
X45901Y-38170D01*
X45901Y-38028D01*
X45859Y-37920D01*
X45610Y-37827D01*
X45344Y-37835D01*
X45141Y-37920D01*
X45099Y-38028D01*
X45500Y-38429D01*
X45901Y-38028D01*
X45901Y-38170D01*
X45571Y-38500D01*
X45972Y-38901D01*
X46080Y-38859D01*
X46173Y-38610D01*
X46173Y-40090D01*
X46059Y-40204D01*
X45979Y-40396D01*
X45979Y-40603D01*
X46058Y-40795D01*
X46204Y-40941D01*
X46396Y-41021D01*
X46603Y-41021D01*
X46795Y-40942D01*
X46941Y-40796D01*
X47021Y-40604D01*
X47021Y-47897D01*
X46942Y-47705D01*
X46796Y-47559D01*
X46619Y-47485D01*
X46619Y-42623D01*
X46619Y-42377D01*
X46525Y-42149D01*
X46351Y-41975D01*
X46123Y-41881D01*
X45901Y-41881D01*
X45901Y-38972D01*
X45500Y-38571D01*
X45429Y-38642D01*
X45429Y-38500D01*
X45028Y-38099D01*
X44920Y-38141D01*
X44827Y-38390D01*
X44835Y-38656D01*
X44920Y-38859D01*
X45028Y-38901D01*
X45429Y-38500D01*
X45429Y-38642D01*
X45099Y-38972D01*
X45141Y-39080D01*
X45390Y-39173D01*
X45656Y-39165D01*
X45859Y-39080D01*
X45901Y-38972D01*
X45901Y-41881D01*
X45877Y-41881D01*
X45649Y-41975D01*
X45475Y-42149D01*
X45474Y-42151D01*
X45474Y-40694D01*
X45474Y-40307D01*
X45326Y-39949D01*
X45052Y-39675D01*
X44694Y-39526D01*
X44307Y-39526D01*
X43949Y-39674D01*
X43675Y-39948D01*
X43619Y-40082D01*
X43619Y-39623D01*
X43619Y-39377D01*
X43619Y-35123D01*
X43619Y-34877D01*
X43525Y-34649D01*
X43351Y-34475D01*
X43123Y-34381D01*
X42877Y-34381D01*
X42649Y-34475D01*
X42475Y-34649D01*
X42381Y-34877D01*
X42381Y-35123D01*
X42475Y-35351D01*
X42649Y-35525D01*
X42877Y-35619D01*
X43123Y-35619D01*
X43351Y-35525D01*
X43525Y-35351D01*
X43619Y-35123D01*
X43619Y-39377D01*
X43525Y-39149D01*
X43351Y-38975D01*
X43123Y-38881D01*
X42877Y-38881D01*
X42649Y-38975D01*
X42475Y-39149D01*
X42381Y-39377D01*
X42381Y-39623D01*
X42475Y-39851D01*
X42603Y-39979D01*
X42397Y-39979D01*
X42205Y-40058D01*
X42059Y-40204D01*
X41979Y-40396D01*
X41979Y-40603D01*
X42058Y-40795D01*
X42204Y-40941D01*
X42396Y-41021D01*
X42603Y-41021D01*
X42795Y-40942D01*
X42941Y-40796D01*
X43021Y-40604D01*
X43021Y-40397D01*
X42942Y-40205D01*
X42841Y-40104D01*
X42877Y-40119D01*
X43123Y-40119D01*
X43351Y-40025D01*
X43525Y-39851D01*
X43619Y-39623D01*
X43619Y-40082D01*
X43526Y-40306D01*
X43526Y-40693D01*
X43674Y-41051D01*
X43948Y-41325D01*
X44306Y-41474D01*
X44693Y-41474D01*
X45051Y-41326D01*
X45325Y-41052D01*
X45474Y-40694D01*
X45474Y-42151D01*
X45381Y-42377D01*
X45381Y-42623D01*
X45475Y-42851D01*
X45649Y-43025D01*
X45877Y-43119D01*
X46123Y-43119D01*
X46351Y-43025D01*
X46525Y-42851D01*
X46619Y-42623D01*
X46619Y-47485D01*
X46604Y-47479D01*
X46397Y-47479D01*
X46205Y-47558D01*
X46173Y-47590D01*
X46173Y-46110D01*
X46165Y-45844D01*
X46080Y-45641D01*
X45972Y-45599D01*
X45901Y-45670D01*
X45901Y-45528D01*
X45859Y-45420D01*
X45610Y-45327D01*
X45344Y-45335D01*
X45141Y-45420D01*
X45099Y-45528D01*
X45500Y-45929D01*
X45901Y-45528D01*
X45901Y-45670D01*
X45571Y-46000D01*
X45972Y-46401D01*
X46080Y-46359D01*
X46173Y-46110D01*
X46173Y-47590D01*
X46059Y-47704D01*
X45979Y-47896D01*
X45979Y-48103D01*
X46058Y-48295D01*
X46204Y-48441D01*
X46396Y-48521D01*
X46603Y-48521D01*
X46795Y-48442D01*
X46941Y-48296D01*
X47021Y-48104D01*
X47021Y-53881D01*
X46877Y-53881D01*
X46649Y-53975D01*
X46619Y-54005D01*
X46619Y-50123D01*
X46619Y-49877D01*
X46525Y-49649D01*
X46351Y-49475D01*
X46123Y-49381D01*
X45901Y-49381D01*
X45901Y-46472D01*
X45500Y-46071D01*
X45429Y-46142D01*
X45429Y-46000D01*
X45028Y-45599D01*
X44920Y-45641D01*
X44827Y-45890D01*
X44835Y-46156D01*
X44920Y-46359D01*
X45028Y-46401D01*
X45429Y-46000D01*
X45429Y-46142D01*
X45099Y-46472D01*
X45141Y-46580D01*
X45390Y-46673D01*
X45656Y-46665D01*
X45859Y-46580D01*
X45901Y-46472D01*
X45901Y-49381D01*
X45877Y-49381D01*
X45649Y-49475D01*
X45475Y-49649D01*
X45474Y-49651D01*
X45474Y-48194D01*
X45474Y-47807D01*
X45326Y-47449D01*
X45052Y-47175D01*
X44694Y-47026D01*
X44307Y-47026D01*
X43949Y-47174D01*
X43675Y-47448D01*
X43619Y-47582D01*
X43619Y-47123D01*
X43619Y-46877D01*
X43619Y-42623D01*
X43619Y-42377D01*
X43525Y-42149D01*
X43351Y-41975D01*
X43123Y-41881D01*
X42877Y-41881D01*
X42649Y-41975D01*
X42475Y-42149D01*
X42381Y-42377D01*
X42381Y-42623D01*
X42475Y-42851D01*
X42649Y-43025D01*
X42877Y-43119D01*
X43123Y-43119D01*
X43351Y-43025D01*
X43525Y-42851D01*
X43619Y-42623D01*
X43619Y-46877D01*
X43525Y-46649D01*
X43351Y-46475D01*
X43123Y-46381D01*
X42877Y-46381D01*
X42649Y-46475D01*
X42475Y-46649D01*
X42381Y-46877D01*
X42381Y-47123D01*
X42475Y-47351D01*
X42603Y-47479D01*
X42397Y-47479D01*
X42205Y-47558D01*
X42059Y-47704D01*
X41979Y-47896D01*
X41979Y-48103D01*
X42058Y-48295D01*
X42204Y-48441D01*
X42396Y-48521D01*
X42603Y-48521D01*
X42795Y-48442D01*
X42941Y-48296D01*
X43021Y-48104D01*
X43021Y-47897D01*
X42942Y-47705D01*
X42841Y-47604D01*
X42877Y-47619D01*
X43123Y-47619D01*
X43351Y-47525D01*
X43525Y-47351D01*
X43619Y-47123D01*
X43619Y-47582D01*
X43526Y-47806D01*
X43526Y-48193D01*
X43674Y-48551D01*
X43948Y-48825D01*
X44306Y-48974D01*
X44693Y-48974D01*
X45051Y-48826D01*
X45325Y-48552D01*
X45474Y-48194D01*
X45474Y-49651D01*
X45381Y-49877D01*
X45381Y-50123D01*
X45475Y-50351D01*
X45649Y-50525D01*
X45877Y-50619D01*
X46123Y-50619D01*
X46351Y-50525D01*
X46525Y-50351D01*
X46619Y-50123D01*
X46619Y-54005D01*
X46475Y-54149D01*
X46381Y-54377D01*
X46381Y-54623D01*
X46475Y-54851D01*
X46603Y-54979D01*
X46397Y-54979D01*
X46205Y-55058D01*
X46059Y-55204D01*
X45979Y-55396D01*
X45979Y-55603D01*
X46058Y-55795D01*
X46204Y-55941D01*
X46396Y-56021D01*
X46603Y-56021D01*
X46795Y-55942D01*
X46941Y-55796D01*
X47021Y-55604D01*
X47021Y-55397D01*
X46942Y-55205D01*
X46841Y-55104D01*
X46877Y-55119D01*
X47123Y-55119D01*
X47351Y-55025D01*
X47525Y-54851D01*
X47619Y-54623D01*
X47619Y-57377D01*
X47525Y-57149D01*
X47351Y-56975D01*
X47123Y-56881D01*
X46877Y-56881D01*
X46649Y-56975D01*
X46475Y-57149D01*
X46381Y-57377D01*
X46381Y-57623D01*
X46475Y-57851D01*
X46649Y-58025D01*
X46877Y-58119D01*
X47123Y-58119D01*
X47351Y-58025D01*
X47525Y-57851D01*
X47619Y-57623D01*
X47619Y-59608D01*
X44274Y-59608D01*
X44366Y-59570D01*
X44640Y-59296D01*
X44789Y-58938D01*
X44789Y-58551D01*
X44641Y-58193D01*
X44602Y-58154D01*
X44602Y-52902D01*
X44602Y-52589D01*
X44482Y-52300D01*
X44261Y-52078D01*
X43972Y-51958D01*
X43659Y-51958D01*
X43619Y-51974D01*
X43619Y-50123D01*
X43619Y-49877D01*
X43525Y-49649D01*
X43351Y-49475D01*
X43123Y-49381D01*
X42877Y-49381D01*
X42649Y-49475D01*
X42475Y-49649D01*
X42381Y-49877D01*
X42381Y-50123D01*
X42475Y-50351D01*
X42649Y-50525D01*
X42877Y-50619D01*
X43123Y-50619D01*
X43351Y-50525D01*
X43525Y-50351D01*
X43619Y-50123D01*
X43619Y-51974D01*
X43370Y-52078D01*
X43148Y-52299D01*
X43028Y-52588D01*
X43028Y-52901D01*
X43148Y-53190D01*
X43369Y-53412D01*
X43658Y-53532D01*
X43971Y-53532D01*
X44260Y-53412D01*
X44482Y-53191D01*
X44602Y-52902D01*
X44602Y-58154D01*
X44367Y-57919D01*
X44009Y-57770D01*
X43622Y-57770D01*
X43264Y-57918D01*
X42990Y-58192D01*
X42841Y-58550D01*
X42841Y-58937D01*
X42989Y-59295D01*
X43263Y-59569D01*
X43356Y-59608D01*
X42786Y-59608D01*
X42786Y-58928D01*
X42786Y-58447D01*
X42603Y-58005D01*
X42440Y-57897D01*
X42369Y-57968D01*
X42369Y-57826D01*
X42261Y-57663D01*
X41816Y-57480D01*
X41335Y-57480D01*
X40893Y-57663D01*
X40785Y-57826D01*
X41577Y-58618D01*
X42369Y-57826D01*
X42369Y-57968D01*
X41648Y-58689D01*
X42440Y-59481D01*
X42603Y-59373D01*
X42786Y-58928D01*
X42786Y-59608D01*
X42331Y-59608D01*
X42369Y-59552D01*
X41577Y-58760D01*
X40785Y-59552D01*
X40822Y-59608D01*
X40658Y-59608D01*
X40658Y-59443D01*
X40714Y-59481D01*
X41506Y-58689D01*
X40714Y-57897D01*
X40658Y-57934D01*
X40658Y-22435D01*
X40714Y-22473D01*
X41506Y-21681D01*
X40714Y-20889D01*
X40658Y-20926D01*
X40658Y-20762D01*
X40822Y-20762D01*
X40785Y-20818D01*
X41577Y-21610D01*
X42369Y-20818D01*
X42331Y-20762D01*
X46826Y-20762D01*
X46812Y-20776D01*
X46784Y-20844D01*
X46784Y-20918D01*
X46784Y-21518D01*
X46812Y-21586D01*
X46865Y-21639D01*
X46933Y-21667D01*
X47007Y-21667D01*
X47607Y-21667D01*
X47675Y-21639D01*
X47728Y-21586D01*
X47756Y-21518D01*
X47756Y-21444D01*
X47756Y-20844D01*
X47728Y-20776D01*
X47714Y-20762D01*
X48009Y-20762D01*
X47995Y-20768D01*
X47858Y-20905D01*
X47783Y-21083D01*
X47783Y-21277D01*
X47857Y-21456D01*
X47994Y-21593D01*
X48172Y-21668D01*
X48366Y-21668D01*
X48545Y-21594D01*
X48682Y-21457D01*
X48757Y-21279D01*
X48757Y-21085D01*
X48683Y-20906D01*
X48546Y-20769D01*
X48529Y-20762D01*
X49009Y-20762D01*
X48995Y-20768D01*
X48858Y-20905D01*
X48783Y-21083D01*
X48783Y-21277D01*
X48857Y-21456D01*
X48994Y-21593D01*
X49131Y-21650D01*
X48989Y-21709D01*
X48962Y-21803D01*
X49270Y-22110D01*
X49578Y-21803D01*
X49551Y-21709D01*
X49397Y-21655D01*
X49545Y-21594D01*
X49682Y-21457D01*
X49757Y-21279D01*
X49757Y-21085D01*
X49683Y-20906D01*
X49546Y-20769D01*
X49529Y-20762D01*
X69168Y-20762D01*
X69131Y-20818D01*
X69923Y-21610D01*
X70715Y-20818D01*
X70677Y-20762D01*
X70842Y-20762D01*
X70842Y-20926D01*
X70786Y-20889D01*
X69994Y-21681D01*
X70786Y-22473D01*
X70842Y-22435D01*
X70842Y-57934D01*
X70786Y-57897D01*
X70715Y-57968D01*
X70715Y-57826D01*
X70715Y-22544D01*
X69923Y-21752D01*
X69852Y-21823D01*
X69852Y-21681D01*
X69060Y-20889D01*
X68897Y-20997D01*
X68714Y-21442D01*
X68714Y-21923D01*
X68897Y-22365D01*
X69060Y-22473D01*
X69852Y-21681D01*
X69852Y-21823D01*
X69131Y-22544D01*
X69239Y-22707D01*
X69684Y-22890D01*
X70165Y-22890D01*
X70607Y-22707D01*
X70715Y-22544D01*
X70715Y-57826D01*
X70607Y-57663D01*
X70542Y-57636D01*
X70542Y-56592D01*
X70542Y-56279D01*
X70542Y-47222D01*
X70542Y-46909D01*
X70542Y-41592D01*
X70542Y-41279D01*
X70542Y-32222D01*
X70542Y-31909D01*
X70422Y-31620D01*
X70201Y-31398D01*
X69912Y-31278D01*
X69599Y-31278D01*
X69521Y-31310D01*
X69521Y-25604D01*
X69521Y-25397D01*
X69442Y-25205D01*
X69296Y-25059D01*
X69104Y-24979D01*
X68897Y-24979D01*
X68705Y-25058D01*
X68673Y-25090D01*
X68673Y-23610D01*
X68665Y-23344D01*
X68580Y-23141D01*
X68472Y-23099D01*
X68401Y-23170D01*
X68401Y-23028D01*
X68359Y-22920D01*
X68110Y-22827D01*
X67844Y-22835D01*
X67641Y-22920D01*
X67599Y-23028D01*
X68000Y-23429D01*
X68401Y-23028D01*
X68401Y-23170D01*
X68071Y-23500D01*
X68472Y-23901D01*
X68580Y-23859D01*
X68673Y-23610D01*
X68673Y-25090D01*
X68559Y-25204D01*
X68479Y-25396D01*
X68479Y-25603D01*
X68558Y-25795D01*
X68704Y-25941D01*
X68896Y-26021D01*
X69103Y-26021D01*
X69295Y-25942D01*
X69441Y-25796D01*
X69521Y-25604D01*
X69521Y-31310D01*
X69310Y-31398D01*
X69119Y-31588D01*
X69119Y-27623D01*
X69119Y-27377D01*
X69025Y-27149D01*
X68851Y-26975D01*
X68623Y-26881D01*
X68401Y-26881D01*
X68401Y-23972D01*
X68000Y-23571D01*
X67929Y-23642D01*
X67929Y-23500D01*
X67528Y-23099D01*
X67420Y-23141D01*
X67327Y-23390D01*
X67335Y-23656D01*
X67420Y-23859D01*
X67528Y-23901D01*
X67929Y-23500D01*
X67929Y-23642D01*
X67599Y-23972D01*
X67641Y-24080D01*
X67890Y-24173D01*
X68156Y-24165D01*
X68359Y-24080D01*
X68401Y-23972D01*
X68401Y-26881D01*
X68377Y-26881D01*
X68149Y-26975D01*
X67975Y-27149D01*
X67974Y-27151D01*
X67974Y-25694D01*
X67974Y-25307D01*
X67826Y-24949D01*
X67552Y-24675D01*
X67194Y-24526D01*
X66807Y-24526D01*
X66449Y-24674D01*
X66175Y-24948D01*
X66119Y-25082D01*
X66119Y-24623D01*
X66119Y-24377D01*
X66025Y-24149D01*
X65851Y-23975D01*
X65623Y-23881D01*
X65377Y-23881D01*
X65149Y-23975D01*
X64975Y-24149D01*
X64881Y-24377D01*
X64881Y-24623D01*
X64975Y-24851D01*
X65103Y-24979D01*
X64897Y-24979D01*
X64705Y-25058D01*
X64559Y-25204D01*
X64479Y-25396D01*
X64479Y-25603D01*
X64558Y-25795D01*
X64704Y-25941D01*
X64896Y-26021D01*
X65103Y-26021D01*
X65295Y-25942D01*
X65441Y-25796D01*
X65521Y-25604D01*
X65521Y-25397D01*
X65442Y-25205D01*
X65341Y-25104D01*
X65377Y-25119D01*
X65623Y-25119D01*
X65851Y-25025D01*
X66025Y-24851D01*
X66119Y-24623D01*
X66119Y-25082D01*
X66026Y-25306D01*
X66026Y-25693D01*
X66174Y-26051D01*
X66448Y-26325D01*
X66806Y-26474D01*
X67193Y-26474D01*
X67551Y-26326D01*
X67825Y-26052D01*
X67974Y-25694D01*
X67974Y-27151D01*
X67881Y-27377D01*
X67881Y-27623D01*
X67975Y-27851D01*
X68149Y-28025D01*
X68377Y-28119D01*
X68623Y-28119D01*
X68851Y-28025D01*
X69025Y-27851D01*
X69119Y-27623D01*
X69119Y-31588D01*
X69088Y-31619D01*
X68968Y-31908D01*
X68968Y-32221D01*
X69088Y-32510D01*
X69309Y-32732D01*
X69598Y-32852D01*
X69911Y-32852D01*
X70200Y-32732D01*
X70422Y-32511D01*
X70542Y-32222D01*
X70542Y-41279D01*
X70422Y-40990D01*
X70201Y-40768D01*
X69912Y-40648D01*
X69673Y-40648D01*
X69673Y-37860D01*
X69665Y-37594D01*
X69580Y-37391D01*
X69472Y-37349D01*
X69401Y-37420D01*
X69401Y-37278D01*
X69359Y-37170D01*
X69110Y-37077D01*
X68844Y-37085D01*
X68641Y-37170D01*
X68619Y-37226D01*
X68619Y-35373D01*
X68619Y-35127D01*
X68525Y-34899D01*
X68351Y-34725D01*
X68123Y-34631D01*
X67877Y-34631D01*
X67649Y-34725D01*
X67521Y-34853D01*
X67521Y-34647D01*
X67442Y-34455D01*
X67296Y-34309D01*
X67104Y-34229D01*
X66897Y-34229D01*
X66705Y-34308D01*
X66559Y-34454D01*
X66479Y-34646D01*
X66479Y-34853D01*
X66558Y-35045D01*
X66704Y-35191D01*
X66896Y-35271D01*
X67103Y-35271D01*
X67295Y-35192D01*
X67395Y-35091D01*
X67381Y-35127D01*
X67381Y-35373D01*
X67475Y-35601D01*
X67649Y-35775D01*
X67877Y-35869D01*
X68123Y-35869D01*
X68351Y-35775D01*
X68525Y-35601D01*
X68619Y-35373D01*
X68619Y-37226D01*
X68599Y-37278D01*
X69000Y-37679D01*
X69401Y-37278D01*
X69401Y-37420D01*
X69071Y-37750D01*
X69472Y-38151D01*
X69580Y-38109D01*
X69673Y-37860D01*
X69673Y-40648D01*
X69599Y-40648D01*
X69401Y-40730D01*
X69401Y-38222D01*
X69000Y-37821D01*
X68929Y-37892D01*
X68929Y-37750D01*
X68528Y-37349D01*
X68420Y-37391D01*
X68327Y-37640D01*
X68335Y-37906D01*
X68420Y-38109D01*
X68528Y-38151D01*
X68929Y-37750D01*
X68929Y-37892D01*
X68599Y-38222D01*
X68641Y-38330D01*
X68890Y-38423D01*
X69156Y-38415D01*
X69359Y-38330D01*
X69401Y-38222D01*
X69401Y-40730D01*
X69310Y-40768D01*
X69088Y-40989D01*
X68968Y-41278D01*
X68968Y-41591D01*
X69088Y-41880D01*
X69309Y-42102D01*
X69598Y-42222D01*
X69911Y-42222D01*
X70200Y-42102D01*
X70422Y-41881D01*
X70542Y-41592D01*
X70542Y-46909D01*
X70422Y-46620D01*
X70201Y-46398D01*
X69912Y-46278D01*
X69599Y-46278D01*
X69310Y-46398D01*
X69088Y-46619D01*
X68968Y-46908D01*
X68968Y-47221D01*
X69088Y-47510D01*
X69309Y-47732D01*
X69598Y-47852D01*
X69911Y-47852D01*
X70200Y-47732D01*
X70422Y-47511D01*
X70542Y-47222D01*
X70542Y-56279D01*
X70422Y-55990D01*
X70201Y-55768D01*
X69912Y-55648D01*
X69673Y-55648D01*
X69673Y-52860D01*
X69665Y-52594D01*
X69580Y-52391D01*
X69472Y-52349D01*
X69401Y-52420D01*
X69401Y-52278D01*
X69359Y-52170D01*
X69110Y-52077D01*
X68844Y-52085D01*
X68641Y-52170D01*
X68619Y-52226D01*
X68619Y-50373D01*
X68619Y-50127D01*
X68525Y-49899D01*
X68351Y-49725D01*
X68123Y-49631D01*
X67877Y-49631D01*
X67649Y-49725D01*
X67521Y-49853D01*
X67521Y-49647D01*
X67521Y-38854D01*
X67521Y-38647D01*
X67442Y-38455D01*
X67296Y-38309D01*
X67104Y-38229D01*
X66897Y-38229D01*
X66705Y-38308D01*
X66559Y-38454D01*
X66479Y-38646D01*
X66479Y-38853D01*
X66558Y-39045D01*
X66704Y-39191D01*
X66896Y-39271D01*
X67103Y-39271D01*
X67295Y-39192D01*
X67441Y-39046D01*
X67521Y-38854D01*
X67521Y-49647D01*
X67442Y-49455D01*
X67296Y-49309D01*
X67104Y-49229D01*
X66897Y-49229D01*
X66705Y-49308D01*
X66559Y-49454D01*
X66479Y-49646D01*
X66479Y-49853D01*
X66558Y-50045D01*
X66704Y-50191D01*
X66896Y-50271D01*
X67103Y-50271D01*
X67295Y-50192D01*
X67395Y-50091D01*
X67381Y-50127D01*
X67381Y-50373D01*
X67475Y-50601D01*
X67649Y-50775D01*
X67877Y-50869D01*
X68123Y-50869D01*
X68351Y-50775D01*
X68525Y-50601D01*
X68619Y-50373D01*
X68619Y-52226D01*
X68599Y-52278D01*
X69000Y-52679D01*
X69401Y-52278D01*
X69401Y-52420D01*
X69071Y-52750D01*
X69472Y-53151D01*
X69580Y-53109D01*
X69673Y-52860D01*
X69673Y-55648D01*
X69599Y-55648D01*
X69401Y-55730D01*
X69401Y-53222D01*
X69000Y-52821D01*
X68929Y-52892D01*
X68929Y-52750D01*
X68528Y-52349D01*
X68420Y-52391D01*
X68327Y-52640D01*
X68335Y-52906D01*
X68420Y-53109D01*
X68528Y-53151D01*
X68929Y-52750D01*
X68929Y-52892D01*
X68599Y-53222D01*
X68641Y-53330D01*
X68890Y-53423D01*
X69156Y-53415D01*
X69359Y-53330D01*
X69401Y-53222D01*
X69401Y-55730D01*
X69310Y-55768D01*
X69088Y-55989D01*
X68968Y-56278D01*
X68968Y-56591D01*
X69088Y-56880D01*
X69309Y-57102D01*
X69598Y-57222D01*
X69911Y-57222D01*
X70200Y-57102D01*
X70422Y-56881D01*
X70542Y-56592D01*
X70542Y-57636D01*
X70162Y-57480D01*
X69681Y-57480D01*
X69239Y-57663D01*
X69131Y-57826D01*
X69923Y-58618D01*
X70715Y-57826D01*
X70715Y-57968D01*
X69994Y-58689D01*
X70786Y-59481D01*
X70842Y-59443D01*
X70842Y-59608D01*
M02*
